<?xml version="1.0" encoding="UTF-8"?>
<svg xmlns="http://www.w3.org/2000/svg" viewBox="0 0 1024 1024" width="1024" height="1024">
<path d="M406.91 205.13C461.22 205.12 515.53 205.12 569.84 205.12C575.26 205.37 580.69 205.62 586.11 205.88C584.09 206.08 582.07 206.29 580.05 206.5C583.7 206.38 587.35 206.25 591 206.13C603.53 205.64 620.53 211.38 631.95 216.52C636.33 218.49 641.79 220.59 645.17 223.93C645.28 224.25 645.39 224.57 645.5 224.89C649.09 227.43 652.69 229.96 656.28 232.5C656.59 232.32 656.89 232.14 657.19 231.96C657.53 232.28 657.87 232.6 658.21 232.92C660.1 234.58 662 236.24 663.9 237.9C667.29 241.51 670.67 245.13 674.06 248.74C674.39 249.09 674.72 249.45 675.05 249.8C674.79 250.03 674.54 250.27 674.29 250.5C675.24 251.35 676.18 252.19 677.13 253.04C679.44 256.66 681.75 260.28 684.06 263.9C684.37 264.31 684.69 264.72 685 265.12C684.75 265.25 684.5 265.37 684.25 265.5C685.19 266.97 686.13 268.43 687.08 269.9C688.02 271.92 688.97 273.93 689.92 275.95C689.66 276.14 689.41 276.32 689.16 276.5C689.94 278.71 690.72 280.91 691.5 283.12C691.68 282.77 691.86 282.42 692.04 282.08C695.54 287.67 696.78 297.52 696.85 304.11C696.84 312.38 696.84 320.66 696.84 328.93C696.59 330.24 696.34 331.56 696.1 332.87C695.9 332.18 695.7 331.48 695.5 330.78C695.61 332.48 695.73 334.18 695.84 335.87C695.63 344.15 691.75 360.05 687.06 366.89C687.01 366.89 686.72 366.15 686.42 366.3C686.2 366.41 683.83 371.9 683.47 372.61C681.08 377.38 673.08 389.04 672.48 393.1C671.67 394.11 670.85 395.11 670.04 396.12C668.48 397.58 666.92 399.04 665.36 400.5C665.37 401.02 665.39 401.54 665.4 402.06C664.92 402.67 664.44 403.27 663.97 403.88C663.67 403.75 663.38 403.63 663.08 403.5C660.01 406.97 656.94 410.43 653.87 413.9C652.94 414.61 652.01 415.33 651.08 416.04C650.89 415.82 650.69 415.6 650.5 415.39C649.43 416.62 648.36 417.85 647.29 419.08C646.94 419.4 646.6 419.73 646.25 420.05C646 419.8 645.75 419.55 645.5 419.3C644.59 420.03 643.69 420.77 642.78 421.5C643.14 421.65 643.49 421.8 643.84 421.95C641.61 423.46 639.39 424.98 637.17 426.5C633.84 426.8 628.9 429.44 627.11 432.07C626.03 432.71 624.95 433.35 623.87 434C623.75 433.74 623.62 433.49 623.5 433.24C620.88 434.32 618.26 435.41 615.65 436.5C616.07 436.69 616.49 436.88 616.92 437.07C609.92 441.66 595.26 445.13 586.89 445.84C586.76 445.68 586.63 445.51 586.5 445.34C584.99 445.39 583.49 445.45 581.98 445.5C582.93 445.69 583.89 445.88 584.84 446.07C583.56 446.34 582.29 446.6 581.02 446.87C580.85 446.64 580.67 446.4 580.5 446.17C578.9 446.28 577.3 446.39 575.69 446.5C576.52 446.73 577.34 446.96 578.16 447.19C576.5 447.42 574.83 447.65 573.17 447.88C571.43 447.75 569.69 447.63 567.95 447.5C567.97 447.91 567.98 448.32 568 448.72C566.62 448.76 565.24 448.81 563.87 448.85C559.78 448.73 555.7 448.62 551.62 448.5C552.75 448.85 553.87 449.2 555 449.54C551.31 449.65 547.62 449.75 543.94 449.85C543.79 449.66 543.65 449.47 543.5 449.29C541.17 449.25 538.83 449.21 536.5 449.17C536.36 449.45 536.21 449.74 536.07 450.02C535.43 452.05 534.79 454.08 534.14 456.11C533.93 455.52 533.71 454.94 533.5 454.35C533.39 455.73 533.28 457.12 533.16 458.5C533.39 458.64 533.61 458.79 533.84 458.93C533.61 459.98 533.38 461.02 533.15 462.07C532.87 461.54 532.58 461.02 532.3 460.5C532.06 463.11 530.88 473.62 529.82 475.47C529.28 476.4 528.78 476.05 528 476.5C528.61 478.32 529.23 480.14 529.84 481.96C529.82 482.31 529.8 482.65 529.77 483C529.35 482.9 528.92 482.8 528.5 482.7C528.4 483.97 528.31 485.23 528.21 486.5C528.44 486.69 528.67 486.87 528.9 487.06C528.88 487.37 528.87 487.69 528.85 488C528.4 488.11 527.95 488.23 527.5 488.34C526.67 493.06 525.83 497.78 525 502.5C525.29 502.7 525.58 502.89 525.86 503.09C525.6 503.69 525.34 504.29 525.07 504.89C524.76 504.76 524.45 504.63 524.14 504.5C522.85 508.17 520.9 511.92 518.49 515C517.05 516.85 515.25 518.08 514.24 520.1C513.18 520.83 512.12 521.56 511.07 522.29C509.88 522.61 508.69 522.93 507.5 523.25C507.43 523.56 507.36 523.87 507.29 524.17C503.94 526.65 499.03 527.59 494.83 527.82C492.61 527.71 490.39 527.61 488.16 527.5C488.44 527.89 488.72 528.28 489 528.67C487.69 528.73 486.39 528.79 485.08 528.85C482.16 528.73 479.25 528.62 476.33 528.5C476.55 528.92 476.78 529.33 477 529.75C476.04 529.78 475.08 529.82 474.12 529.85C473.91 529.6 473.71 529.35 473.5 529.1C470.11 529.24 466.71 529.37 463.32 529.5C463.88 529.84 464.44 530.18 465 530.52C463.32 530.62 461.64 530.73 459.96 530.84C455.13 530.39 450.29 529.95 445.46 529.5C474.76 517.25 479.48 486.81 493.61 462.18C497.48 455.42 501.35 448.73 506.18 442.59C508.69 439.41 512.28 436.51 513.96 432.96C519.64 430.24 524.64 424.11 530.1 420.49C541.53 412.91 554.33 408.41 567.19 404.5C570.94 398.14 572.5 383.31 574.18 375.57C578.97 353.42 584.71 330.42 598.37 311.87C602.73 305.95 608.36 300.02 614.52 295.93C616.13 294.86 618.67 292.28 620.67 292.11C621.49 292.03 622.28 292.48 623.1 292.5C612.85 299.57 604.56 310.43 598.93 321.44C597.32 324.61 593.59 329.8 594.9 332.99C594.98 333.32 595.07 333.64 595.16 333.97C597.27 335.49 600.6 335.1 603.5 335.09C609.83 335.07 616.17 335.08 622.5 335.07C625.7 335.07 628.74 335.67 630.87 333.91C631.21 332.64 631.55 331.37 631.89 330.1C631.94 330.22 632.38 331.7 632.52 331.66C632.91 331.55 632.67 330.84 632.9 330.5C634.99 320.24 637.17 310.04 639.38 299.8C640.21 295.96 642.89 289.39 641.15 286.02C640.75 285.63 640.34 285.24 639.93 284.85C639.79 284.52 639.64 284.2 639.5 283.88C637.66 284.21 635.82 284.53 633.98 284.86C633.64 284.28 633.3 283.71 632.96 283.14C633.07 282.84 633.77 282.75 633.63 282.47C633.22 281.62 629.3 282.03 628.5 282.02C623.5 281.95 618.5 282.03 613.5 282.01C600.5 281.96 587.5 281.98 574.5 282.01C556.5 282.06 538.5 282.01 520.5 282C511.3 282 501.56 281.07 492.52 282.82C484.38 284.39 469.26 289.42 465.08 297.08C462 298.44 459 301.81 457.98 304.98C452.1 308.92 448.04 320.75 445.85 327.38C442.5 337.53 441.18 348.02 438.82 358.41C436.11 370.29 433.65 382.44 431.71 394.5C427.27 395.81 423.08 395.61 418.55 396.25C413.52 396.96 408.53 398.34 403.49 398.92C402.58 399.02 401.41 398.69 400.55 398.91C399.91 399.07 399.18 399.8 398.49 400.07C392.33 402.48 385.65 403.36 379.5 406.04C378.72 405.4 377.94 404.75 377.16 404.11C377.15 402.91 377.13 401.7 377.11 400.5C377.38 400.32 377.64 400.13 377.9 399.95C378.1 400.42 378.3 400.89 378.5 401.36C378.62 399.41 378.74 397.45 378.86 395.5C378.63 395.35 378.4 395.19 378.17 395.04C378.41 394.04 378.66 393.03 378.9 392.03C379.1 392.73 379.3 393.44 379.5 394.14C379.93 389.59 380.36 385.05 380.8 380.5C380.59 380.36 380.38 380.22 380.17 380.08C380.41 378.77 380.65 377.46 380.89 376.14C381.09 377.23 381.3 378.32 381.5 379.41C381.57 377.11 381.63 374.8 381.7 372.5C381.53 372.37 381.36 372.25 381.18 372.12C381.41 371.08 381.64 370.05 381.87 369.01C382.15 369.51 382.42 370 382.7 370.5C383.08 364.6 386.21 354.4 384.17 349.15C385.07 342.42 385.96 335.69 386.86 328.96C387.08 330.19 387.29 331.43 387.5 332.66C387.59 330.27 387.67 327.89 387.76 325.5C387.56 325.37 387.36 325.24 387.16 325.11C387.4 323.75 387.63 322.4 387.87 321.04C388.08 322.17 388.29 323.31 388.5 324.45C389 319.46 389.49 314.48 389.99 309.5C389.71 309.3 389.43 309.1 389.16 308.9C389.39 307.6 389.62 306.3 389.85 305C390.07 306.13 390.28 307.26 390.5 308.39C391.12 303.56 393.68 289.79 392.15 286.01C392.4 284.35 392.64 282.69 392.88 281.02C393.09 282.27 393.29 283.52 393.5 284.77C393.39 282.23 393.28 279.69 393.16 277.15C393.39 275.71 393.61 274.28 393.84 272.84C394.06 273.87 394.28 274.89 394.5 275.92C394.62 273.78 394.74 271.64 394.86 269.5C394.63 269.35 394.39 269.2 394.16 269.06C394.39 267.67 394.62 266.29 394.85 264.91C395.12 265.77 395.38 266.64 395.65 267.5C396.09 262.13 399.09 249.01 397.16 244.89C397.4 243.62 397.64 242.35 397.88 241.07C398.09 242.05 398.29 243.03 398.5 244C398.6 241.83 398.69 239.67 398.79 237.5C398.58 237.35 398.37 237.21 398.17 237.06C398.39 236 398.61 234.93 398.83 233.86C399.06 234.62 399.28 235.39 399.5 236.15C399.39 233.78 399.28 231.41 399.17 229.04C399.43 227.75 399.68 226.46 399.94 225.16C400.13 225.97 400.31 226.78 400.5 227.58C400.62 225.56 400.75 223.53 400.87 221.5C400.63 221.33 400.4 221.17 400.17 221C400.41 219.69 400.65 218.37 400.89 217.05C401.09 218.12 401.3 219.19 401.5 220.26C401.56 218.34 401.61 216.42 401.67 214.5C401.5 214.37 401.34 214.24 401.17 214.11C401.45 209.63 401.69 205.26 406.91 205.13ZM502.13 283.2C499.42 283.41 496.72 283.63 494.02 283.85C494.18 283.54 494.34 283.22 494.5 282.91C497.04 283 499.58 283.1 502.13 283.2ZM519.94 283.19C530.66 283.19 541.37 283.19 552.08 283.19C541.37 283.19 530.66 283.19 519.94 283.19ZM559.99 283.19C562.66 283.19 565.33 283.19 568 283.19C565.33 283.19 562.66 283.19 559.99 283.19ZM583.86 283.2C589.61 283.2 595.37 283.2 601.12 283.2C595.37 283.2 589.61 283.2 583.86 283.2ZM610.11 283.19C613.12 283.2 616.12 283.2 619.13 283.2C616.12 283.2 613.12 283.2 610.11 283.19ZM627.02 283.19C628.66 283.18 630.3 283.16 631.94 283.15C630.3 283.16 628.66 283.18 627.02 283.19ZM697.13 310.07C698.52 313.54 698.44 319.35 697.13 322.85C697.13 318.59 697.13 314.33 697.13 310.07ZM560.88 337.5C561.8 347.77 548.56 344.93 541.5 344.95C523.83 344.99 506.17 344.9 488.5 344.96C481.94 344.98 472.88 346.82 468.2 341.5C469.7 333.17 482.15 335.99 488.5 336.02C505.83 336.1 523.17 336.04 540.5 336.06C545.75 336.07 556.78 334.65 560.88 337.5ZM554.87 360.5C555.36 371.53 543.08 369.02 535.5 369.02C517.17 369.03 498.83 369.01 480.5 369.04C473.67 369.04 464.12 371.13 459.17 365.5C458.39 353.99 470.51 357.05 478.5 357.07C496.83 357.11 515.17 357.06 533.5 357.07C540.26 357.07 549.96 354.96 554.87 360.5ZM443.99 403.16C442.65 403.71 441.31 404.25 439.96 404.8C439.69 404.5 439.42 404.19 439.14 403.89C440.76 403.65 442.38 403.4 443.99 403.16ZM431 407.65C430.68 407.71 430.37 407.77 430.05 407.82C426.42 406.92 410.17 414.78 407.93 417.99C404.92 419.97 401.91 421.95 398.91 423.93C397.6 424.95 396.3 425.97 394.99 427C392.97 428.64 390.95 430.29 388.93 431.93C383.74 434.05 379 440.56 375.31 444.83C365.81 455.82 357.43 467.44 350.5 480.26C350.5 476.51 351.46 476.6 351.97 473.47C353.09 466.62 348.62 464.19 356 460.5C354.5 460 353 459.5 351.5 459C355.28 455.22 353.97 456.18 359 455.5C357.14 453.99 355.99 454.03 357.5 452C360.04 451.47 358.37 453.01 360 451.5C361.14 447.87 358.28 448.6 356.5 446C357.67 445.17 358.83 444.33 360 443.5C359 441.83 358 440.17 357 438.5C363.34 438.4 360.05 435.44 357.5 433C357.4 439.26 355.1 430.25 352.5 439C351.73 438.67 351.65 438.08 350.66 438.22C349.14 438.44 345.3 442.71 344.53 444.03C344.31 444.4 343.95 446.56 343.5 446.56C343.12 446.56 343.03 445.53 343 445.5C342.69 444.64 342.3 445.37 342.25 444.44C342.18 443.37 344.68 441.6 345.41 440.92C348.54 437.96 351.95 435.4 355.18 432.56C369.77 419.72 390.71 413.04 409.24 408.64C413.01 407.75 427.28 404.43 430.37 406.01C431.31 406.49 430.75 407 431 407.65ZM329.5 458.79C329.47 462.23 329.98 461.87 326.7 462.5C327.63 461.26 328.57 460.02 329.5 458.79ZM325 467.5C323.57 469.78 322.95 470.89 320.47 471.5C322.18 468.93 322.09 467.64 325 467.5ZM351 469.5C349.42 471.08 349.04 471.47 347 471.5C348.58 469.92 348.96 469.53 351 469.5ZM342.5 480.08C345.11 480.08 347.72 480.08 350.34 480.08C349.88 481.13 349.43 483.33 348.28 483.96C345.91 485.28 335.6 483.34 333 482.5C334.48 482.2 343.28 481.97 343.56 481.5C343.86 480.99 342.85 480.56 342.5 480.08ZM332 481.18C331.61 481.41 331.63 482.04 331.31 482.36C329.84 483.84 327.16 481.78 326 481.18C328 481.18 330 481.18 332 481.18ZM225.95 559.97C225.71 560.15 225.46 560.32 225.21 560.5C226.64 561.23 228.07 561.96 229.5 562.69C229.75 562.45 229.99 562.22 230.24 561.98C230.56 562.29 230.88 562.6 231.21 562.91C232.56 565.41 235.26 567 237.04 569.39C240.16 573.56 241.6 578.46 242.35 583.5C242.6 583.03 242.85 582.55 243.1 582.08C243.35 583.42 243.6 584.77 243.84 586.11C243.85 589.11 243.86 592.1 243.88 595.1C243.3 598.74 242.72 602.38 242.14 606.03C241.87 605.52 241.6 605.01 241.33 604.5C240.47 609.14 239.13 613.81 236.69 617.91C236.02 619.03 232.49 623.68 232.42 624.63C232.32 625.81 232.8 624.46 233.05 625.33C232.72 625.6 232.4 625.88 232.07 626.15C230.47 627.8 228.87 629.45 227.26 631.1C226.93 631.42 226.6 631.73 226.27 632.05C226.01 631.83 225.76 631.61 225.5 631.39C221.83 633.65 218.17 635.92 214.5 638.18C214.39 638.49 214.27 638.8 214.16 639.11C210.81 641.65 205.24 642.61 200.99 642.84C200.82 642.6 200.66 642.37 200.5 642.13C197.15 642.25 193.8 642.38 190.45 642.5C192.28 642.7 194.1 642.9 195.93 643.1C189.27 643.35 182.61 643.59 175.94 643.83C175.8 643.65 175.65 643.46 175.5 643.28C173.17 643.22 170.83 643.16 168.5 643.1C168.29 643.35 168.07 643.6 167.86 643.86C166.07 643.97 164.29 644.08 162.5 644.19C161.39 649.18 160.28 654.17 159.18 659.17C158.95 658.34 158.73 657.52 158.5 656.7C158.4 658.3 158.3 659.9 158.19 661.5C158.41 661.65 158.63 661.81 158.85 661.96C158.27 664.96 157.69 667.95 157.1 670.95C156.9 669.98 156.7 669.01 156.5 668.05C155.95 672.5 153.01 681.24 154.84 684.99C154.6 686 154.36 687.02 154.12 688.03C153.92 687.23 153.71 686.42 153.5 685.61C153.35 686.91 153.19 688.2 153.04 689.5C153.31 689.69 153.59 689.89 153.87 690.08C153.55 691.89 153.23 693.69 152.91 695.5C143.44 695.43 133.97 695.35 124.5 695.28C123.74 691.59 124.58 688.69 125.27 685C125.68 685.01 126.09 685.01 126.5 685.02C126.67 683.51 126.83 682.01 127 680.5C126.73 680.47 126.47 680.44 126.2 680.41C126.44 679.32 126.68 678.24 126.91 677.15C127.11 677.87 127.3 678.59 127.5 679.3C127.53 678.03 127.55 676.77 127.58 675.5C128.76 673.36 129 672.15 128.11 669.88C129.37 662.93 130.62 655.97 131.88 649.01C132.08 649.89 132.29 650.77 132.5 651.65C132.61 650.27 132.73 648.88 132.84 647.5C132.61 647.31 132.38 647.12 132.14 646.94C132.38 645.91 132.61 644.89 132.85 643.87C133.06 644.52 133.28 645.17 133.5 645.83C133.61 644.38 133.71 642.94 133.82 641.5C133.6 641.36 133.38 641.21 133.16 641.07C133.4 640.03 133.64 638.99 133.88 637.94C134.17 638.13 134.45 638.31 134.74 638.5C135.56 633.31 138.63 623.26 137.1 618.88C137.71 615.62 138.33 612.36 138.94 609.1C139.13 609.89 139.31 610.69 139.5 611.48C140.27 606.49 141.04 601.49 141.8 596.5C141.58 596.31 141.35 596.12 141.12 595.93C141.3 587.63 145.49 564.81 149.1 557.5C161.51 553.33 189.52 555.03 203.5 555.14C210.54 555.19 220.28 555.42 225.95 559.97ZM523.74 570C523.32 569.76 522.91 569.52 522.5 569.27C522.37 570.68 522.23 572.09 522.1 573.5C522.35 573.69 522.61 573.88 522.87 574.08C522.81 574.72 522.76 575.36 522.71 576C522.3 575.61 521.9 575.22 521.5 574.84C521.42 576.39 521.34 577.95 521.26 579.5C521.45 579.63 521.64 579.76 521.83 579.89C521.21 583.43 520.59 586.96 519.97 590.5C520.3 590.97 520.64 591.43 520.97 591.9C530.48 592.18 539.99 592.45 549.5 592.73C549.01 598.13 548.53 603.54 548.04 608.94C542.4 610.96 525.62 610.63 519.55 609.5C519.45 609.96 519.35 610.41 519.24 610.87C518.56 611.08 517.88 611.29 517.2 611.5C516.86 612.67 516.51 613.84 516.16 615.01C515.94 613.97 515.72 612.93 515.5 611.89C515.42 613.43 515.34 614.96 515.26 616.5C515.46 616.64 515.66 616.78 515.86 616.92C515.81 617.62 515.76 618.31 515.71 619C515.31 618.64 514.9 618.29 514.5 617.93C514.37 619.45 514.24 620.98 514.11 622.5C514.36 622.67 514.61 622.85 514.86 623.02C514.82 623.35 514.79 623.67 514.76 624C514.34 624.03 513.92 624.07 513.5 624.1C513.4 625.24 513.3 626.37 513.2 627.5C513.42 627.69 513.65 627.88 513.88 628.08C513.83 628.72 513.78 629.36 513.73 630C513.32 629.96 512.91 629.92 512.5 629.87C511.67 633.08 510.83 636.29 510 639.5C510.1 641.17 510.19 642.83 510.29 644.5C510.48 644.64 510.67 644.78 510.86 644.93C510.61 646.28 510.36 647.64 510.11 649C509.91 648 509.7 647.01 509.5 646.02C508.97 650.24 506.17 658.51 507.89 662C507.88 663.63 507.87 665.26 507.86 666.89C507.53 667.09 507.2 667.3 506.87 667.5C507.36 670.78 507.87 673.49 511.18 674.6C513.12 675.36 515.06 676.13 517 676.89C516.4 677.1 515.8 677.3 515.2 677.5C516.64 677.67 518.07 677.84 519.5 678C519.66 677.7 519.81 677.4 519.97 677.1C522.62 677.09 525.28 677.07 527.93 677.06C528.12 677.35 528.31 677.64 528.5 677.93C530.12 677.79 531.74 677.64 533.36 677.5C533.24 677.08 533.12 676.65 533 676.23C533.33 676.21 533.67 676.2 534 676.18C534.12 676.62 534.23 677.06 534.35 677.5C535.17 678 535.99 678.5 536.81 679C536.8 679.67 536.78 680.33 536.77 681C536.26 681.17 535.75 681.33 535.23 681.5C534.99 683.44 533.91 693.24 532.31 693.88C530.78 694.49 532.56 693.38 531 693.5C529.92 694.17 528.84 694.83 527.76 695.5C528.17 695.9 528.59 696.3 529 696.7C528.36 696.75 527.73 696.81 527.09 696.86C526.89 696.62 526.7 696.39 526.5 696.15C524.92 696.27 523.34 696.38 521.76 696.5C521.84 696.92 521.92 697.35 522 697.77C521.33 697.8 520.66 697.82 519.99 697.85C515.33 695.48 507.91 697.61 502.57 696.82C499.15 696.31 495.71 695.45 492.57 693.95C490.54 692.97 489.06 691.67 486.98 691.15C486.64 690.83 486.3 690.51 485.96 690.19C486.19 689.96 486.42 689.73 486.64 689.5C485 686.83 483.35 684.17 481.7 681.5C481.63 680.23 481.57 678.97 481.5 677.7C481.3 678.46 481.11 679.21 480.91 679.97C480.7 679.81 480.49 679.66 480.28 679.5C480.23 678.31 480.19 677.12 480.14 675.94C480.33 672.79 480.51 669.65 480.7 666.5C480.5 666.31 480.3 666.12 480.11 665.93C480.71 661.98 481.32 658.04 481.92 654.09C482.11 655.11 482.31 656.14 482.5 657.16C482.58 655.61 482.66 654.05 482.73 652.5C482.54 652.35 482.34 652.21 482.14 652.06C482.4 650.76 482.65 649.46 482.91 648.16C483.1 649.13 483.3 650.09 483.5 651.05C483.58 649.53 483.66 648.02 483.75 646.5C483.55 646.35 483.35 646.2 483.15 646.06C483.73 643.04 484.31 640.03 484.88 637.01C485.09 637.89 485.29 638.76 485.5 639.64C485.65 638.26 485.79 636.88 485.94 635.5C485.67 635.34 485.4 635.18 485.13 635.01C485.37 633.96 485.61 632.91 485.84 631.86C486.06 632.74 486.28 633.61 486.5 634.49C486.6 632.83 486.71 631.16 486.81 629.5C486.59 629.33 486.37 629.16 486.15 628.98C487.08 623.16 488.02 617.33 488.95 611.5C483.35 611.17 477.75 610.83 472.15 610.5C472.74 604.68 473.32 598.87 473.9 593.05C474.1 594.24 474.3 595.44 474.5 596.63C474.83 595.41 475.17 594.19 475.5 592.96C480.71 592.63 485.93 592.3 491.14 591.97C495.63 586.91 493.62 570.92 498.5 563.89C504.08 561.7 518.05 562.26 524.02 563.5C524.49 566.02 524.36 567.39 523.74 570ZM178.04 577.14C176.86 577.4 175.68 577.67 174.5 577.93C173.7 580.6 172.9 583.27 172.1 585.95C171.9 585.05 171.7 584.16 171.5 583.26C171.34 584.67 171.17 586.09 171.01 587.5C171.3 587.72 171.58 587.94 171.86 588.16C171.63 589.14 171.39 590.12 171.15 591.1C170.93 590.37 170.72 589.64 170.5 588.92C170.43 590.44 170.36 591.97 170.3 593.5C170.48 593.62 170.66 593.75 170.84 593.87C169.26 603.08 167.67 612.29 166.09 621.5C169.43 621.72 172.77 621.94 176.11 622.16C182.31 622.28 188.51 622.39 194.71 622.5C193.82 622.31 192.93 622.11 192.03 621.92C193.34 621.65 194.64 621.39 195.94 621.12C196.13 621.37 196.31 621.62 196.5 621.87C197.9 621.42 199.31 620.96 200.71 620.5C200.48 620.32 200.26 620.14 200.03 619.96C201.65 618.96 203.27 617.96 204.9 616.96C205.1 617.21 205.3 617.45 205.5 617.69C206.91 616.29 208.32 614.9 209.73 613.5C209.47 613.27 209.22 613.04 208.96 612.82C210.28 610.56 211.6 608.29 212.92 606.03C213.12 606.49 213.31 606.95 213.5 607.4C213.96 605.44 214.42 603.47 214.88 601.5C214.63 601.33 214.39 601.16 214.15 600.99C214.39 600.02 214.64 599.05 214.89 598.07C215.09 598.83 215.3 599.6 215.5 600.36C215.39 598.6 215.27 596.85 215.16 595.09C214.81 592.05 214.46 589.01 214.11 585.96C214.33 585.81 214.55 585.65 214.77 585.5C213.68 583.79 212.59 582.07 211.5 580.36C211.26 580.58 211.02 580.81 210.79 581.04C210.48 580.71 210.17 580.38 209.87 580.05C208.27 577.74 206.28 577.56 203.5 577.3C203.34 577.49 203.19 577.67 203.03 577.86C197.99 577.62 192.95 577.39 187.92 577.15C192.16 576.93 196.4 576.72 200.65 576.5C192.6 576.42 184.55 576.34 176.5 576.27C177.01 576.56 177.53 576.85 178.04 577.14ZM449.07 592.96C451.43 594.61 453.79 596.26 456.15 597.9C456.72 600 457.23 600.78 459.1 601.74C467.07 609.92 463.13 627.66 461.36 637.71C460.72 641.36 460.61 645.77 459.14 649.04C458.93 648.02 458.71 647 458.5 645.98C458.06 649.42 456.08 653.29 457.93 656.14C457.66 657.42 457.39 658.71 457.11 660C456.91 659.38 456.7 658.76 456.5 658.14C456.42 659.59 456.34 661.05 456.27 662.5C456.46 662.63 456.65 662.77 456.85 662.9C456.6 663.94 456.36 664.97 456.12 666.01C455.91 665.3 455.71 664.6 455.5 663.89C455.41 665.43 455.33 666.96 455.24 668.5C455.44 668.63 455.63 668.76 455.83 668.89C455.6 669.94 455.37 671 455.14 672.06C454.93 671.23 454.71 670.4 454.5 669.58C454.41 671.22 454.33 672.86 454.24 674.5C454.44 674.63 454.63 674.75 454.83 674.88C453.61 681.75 452.38 688.63 451.16 695.5C442.44 695.61 433.73 695.73 425.01 695.84C425.13 695.39 425.26 694.95 425.39 694.5C425.5 691.5 425.61 688.5 425.71 685.5C425.53 685.35 425.34 685.19 425.15 685.04C425.71 681.98 426.28 678.93 426.84 675.87C427.06 676.62 427.28 677.38 427.5 678.13C427.56 676.58 427.63 675.04 427.69 673.5C427.51 673.38 427.34 673.25 427.16 673.13C427.74 669.78 428.32 666.42 428.91 663.07C429.1 664 429.3 664.92 429.5 665.85C429.59 664.4 429.67 662.95 429.76 661.5C429.55 661.33 429.35 661.16 429.14 660.99C429.4 659.7 429.66 658.42 429.92 657.13C430.11 657.97 430.31 658.81 430.5 659.65C430.38 658.14 430.26 656.62 430.14 655.11C430.49 645.87 433.84 636.8 434.13 627.5C434.28 622.74 433.76 617.88 429.31 615.2C424.73 612.44 419.03 613.09 413.96 612.84C411.56 612.73 409.15 612.61 406.75 612.5C407.47 612.69 408.2 612.89 408.93 613.08C404.99 614.73 401.06 616.39 397.12 618.04C396.91 617.81 396.71 617.59 396.5 617.36C395.46 618.41 394.42 619.45 393.38 620.5C393.6 620.71 393.83 620.92 394.05 621.13C393.39 622.7 392.72 624.28 392.06 625.85C391.88 625.37 391.69 624.9 391.5 624.42C391.12 627.11 390.73 629.81 390.35 632.5C390.51 632.62 390.67 632.75 390.84 632.87C389.92 638.21 388.99 643.54 388.07 648.88C387.88 647.62 387.69 646.35 387.5 645.09C387.45 646.9 387.39 648.7 387.34 650.5C387.51 650.63 387.68 650.76 387.85 650.88C387.6 651.93 387.36 652.98 387.12 654.02C386.91 653.18 386.71 652.35 386.5 651.51C386.4 653.17 386.3 654.84 386.19 656.5C386.41 656.66 386.63 656.82 386.85 656.99C385.61 664.29 384.36 671.6 383.12 678.91C382.91 677.78 382.71 676.64 382.5 675.51C382.4 677.17 382.3 678.84 382.2 680.5C382.42 680.65 382.63 680.8 382.85 680.95C382.27 683.97 381.69 686.99 381.12 690.02C380.91 689.15 380.71 688.29 380.5 687.42C380.39 689.12 380.28 690.81 380.17 692.5C380.4 692.69 380.63 692.88 380.86 693.07C380.41 694.06 379.95 695.05 379.5 696.04C370.5 695.84 361.5 695.64 352.5 695.44C352.13 692.25 352.47 688.83 353.87 685.97C354.08 686.68 354.29 687.39 354.5 688.1C354.57 686.57 354.64 685.03 354.71 683.5C354.52 683.36 354.33 683.22 354.15 683.08C354.4 681.74 354.65 680.4 354.9 679.05C355.1 680.03 355.3 681.01 355.5 681.99C355.62 680.49 355.73 679 355.85 677.5C355.61 677.28 355.37 677.06 355.12 676.85C355.38 675.59 355.64 674.34 355.9 673.09C356.1 674.09 356.3 675.1 356.5 676.1C356.58 674.57 356.67 673.03 356.75 671.5C356.55 671.36 356.34 671.22 356.14 671.09C356.39 669.76 356.64 668.43 356.9 667.11C357.1 668.18 357.3 669.26 357.5 670.33C357.9 666.72 358.3 663.11 358.7 659.5C358.52 659.37 358.34 659.24 358.16 659.11C358.75 656.09 359.34 653.07 359.92 650.05C360.12 650.89 360.31 651.73 360.5 652.58C360.38 651.1 360.26 649.63 360.14 648.16C360.72 645.06 361.3 641.96 361.87 638.86C362.08 639.56 362.29 640.26 362.5 640.96C362.38 639.34 362.26 637.73 362.15 636.11C363.06 631.06 363.96 626.02 364.87 620.97C365.08 621.82 365.29 622.67 365.5 623.51C366.06 619.28 368.6 610.63 367.13 607.07C367.51 604.71 367.89 602.36 368.26 600C368.68 600.37 369.09 600.75 369.5 601.12C369.56 599.25 369.62 597.37 369.68 595.5C370.17 594.38 370.67 593.25 371.16 592.13C371.39 592.1 371.62 592.08 371.84 592.06C378.39 592.29 384.95 592.52 391.5 592.76C391.67 592.26 391.83 591.76 392 591.27C392.87 591.34 393.73 591.42 394.6 591.5C394.91 595.36 395.23 599.21 395.54 603.07C395.53 603.38 395.51 603.69 395.5 604C396.55 603.17 397.59 602.33 398.64 601.5C398.42 601.32 398.21 601.14 397.99 600.96C399.64 599.54 401.28 598.11 402.93 596.68C405.76 595.62 408.6 594.56 411.43 593.5C410.97 593.3 410.51 593.11 410.04 592.91C418.3 587.55 441.07 587.17 449.07 592.96ZM303.87 590.07C306.41 590.3 308.96 590.52 311.5 590.75C311.65 590.55 311.8 590.34 311.94 590.14C312.8 590.25 313.65 590.36 314.5 590.47C314.38 592.67 314.25 594.87 314.13 597.06C313.92 596.55 313.71 596.04 313.5 595.52C313.1 598.51 312.71 601.51 312.31 604.5C312.5 604.64 312.69 604.78 312.88 604.93C312.3 607.35 311.71 609.77 311.13 612.19C298.04 611.37 286.51 611.17 278.5 622.99C278.64 623.66 278.78 624.33 278.92 624.99C278.3 627.29 277.67 629.58 277.05 631.87C276.87 631.01 276.68 630.15 276.5 629.28C276.1 632.36 275.69 635.43 275.29 638.5C275.48 638.63 275.66 638.75 275.85 638.88C275.6 640.21 275.35 641.53 275.1 642.86C274.9 641.75 274.7 640.65 274.5 639.54C274.14 642.82 274.96 644.1 272 645.5C273.28 647.58 273.23 648.92 273.25 651.5C273.45 651.65 273.64 651.8 273.84 651.95C272.6 658.94 271.35 665.93 270.1 672.93C269.9 671.94 269.7 670.95 269.5 669.96C269.39 671.47 269.27 672.99 269.16 674.5C269.39 674.66 269.62 674.82 269.86 674.99C269.6 676.28 269.34 677.58 269.09 678.87C268.89 677.85 268.7 676.84 268.5 675.82C268.05 679.05 267.59 682.27 267.14 685.5C267.38 685.67 267.62 685.85 267.86 686.02C267.63 687.06 267.39 688.1 267.15 689.14C266.93 688.4 266.72 687.66 266.5 686.92C266.61 688.9 266.72 690.88 266.83 692.86C266.39 693.9 265.94 694.94 265.5 695.97C256.97 695.82 248.44 695.66 239.91 695.5C239.6 690.41 241.76 674.51 243.91 670.11C244.11 671.12 244.3 672.14 244.5 673.15C244.63 671.6 244.76 670.05 244.9 668.5C244.64 668.34 244.39 668.18 244.14 668.02C245.4 661.04 246.67 654.06 247.93 647.07C248.12 647.9 248.31 648.72 248.5 649.55C248.52 648.2 248.54 646.85 248.57 645.5C248.43 645.37 248.28 645.24 248.14 645.11C249.07 639.77 249.99 634.44 250.92 629.1C251.11 630.01 251.31 630.92 251.5 631.83C251.55 630.39 251.59 628.94 251.64 627.5C252.07 625.5 252.5 623.5 252.93 621.5C252.67 621.29 252.4 621.08 252.13 620.87C252.39 619.6 252.64 618.34 252.9 617.07C253.1 618.14 253.3 619.21 253.5 620.28C253.37 618.49 253.25 616.7 253.12 614.91C254.05 609.9 254.97 604.9 255.89 599.9C256.1 600.51 256.3 601.12 256.5 601.73C256.39 600.21 256.28 598.69 256.17 597.16C256.61 595.49 257.06 593.82 257.5 592.14C264.83 591.94 272.17 591.75 279.5 591.55C280.13 595.13 278.01 601 279.96 603.63C283.74 601.65 285.79 596.55 291.5 593.9C291.35 593.57 291.2 593.25 291.05 592.93C294.56 590.35 299.56 589.82 303.87 590.07ZM351.89 591.32C352.64 591.71 353.38 592.11 354.12 592.5C353.77 594.37 353.42 596.23 353.07 598.1C352.09 602.56 351.1 607.03 350.11 611.5C350.37 611.68 350.62 611.86 350.88 612.04C350.62 613.33 350.37 614.63 350.11 615.92C349.91 614.97 349.7 614.03 349.5 613.08C349.38 614.55 349.26 616.03 349.13 617.5C349.38 617.65 349.62 617.81 349.87 617.96C349.53 620.02 349.2 622.07 348.86 624.13C345.54 626.85 347.29 632.83 344.5 636C344.96 637.7 345.42 639.39 345.88 641.09C345.62 642.37 345.36 643.66 345.1 644.95C344.9 643.91 344.7 642.87 344.5 641.84C344.37 643.39 344.24 644.95 344.11 646.5C344.37 646.68 344.62 646.86 344.88 647.04C344.29 650.31 343.69 653.59 343.1 656.86C342.85 656.07 342.61 655.29 342.36 654.5C341.64 659.66 338.04 671.88 339.86 676.03C339.63 677.07 339.4 678.11 339.17 679.16C338.94 678.37 338.72 677.58 338.5 676.79C338.15 679.86 338.48 680.98 336.5 683C336.69 684.5 336.88 686 337.08 687.5C337.33 687.65 337.59 687.81 337.85 687.96C337.29 690.47 336.74 692.99 336.18 695.5C327.37 695.5 318.55 695.5 309.74 695.5C310.13 692.68 310.51 689.87 310.9 687.05C311.1 687.95 311.3 688.85 311.5 689.75C311.38 688.15 311.26 686.54 311.13 684.93C311.39 683.63 311.64 682.33 311.9 681.03C312.1 681.9 312.3 682.77 312.5 683.65C312.58 681.93 312.65 680.22 312.73 678.5C312.54 678.35 312.35 678.2 312.16 678.05C313.41 671.09 314.67 664.12 315.92 657.15C316.12 657.98 316.31 658.81 316.5 659.64C316.59 658.26 316.68 656.88 316.78 655.5C316.57 655.35 316.36 655.21 316.15 655.06C316.73 652.07 317.32 649.07 317.9 646.07C318.1 646.92 318.3 647.77 318.5 648.62C318.62 647.24 318.74 645.87 318.86 644.5C318.61 644.32 318.37 644.15 318.13 643.97C318.72 640.68 319.32 637.38 319.92 634.09C320.11 634.71 320.31 635.33 320.5 635.95C320.56 634.47 320.62 632.98 320.68 631.5C320.51 631.35 320.33 631.2 320.15 631.05C320.73 628.04 321.31 625.02 321.89 622C322.09 622.71 322.3 623.42 322.5 624.13C322.57 622.58 322.65 621.04 322.72 619.5C322.53 619.37 322.35 619.24 322.16 619.1C322.4 618.05 322.63 617 322.86 615.94C323.08 616.76 323.29 617.57 323.5 618.38C323.98 614.82 325.66 610.44 324.16 607.14C324.18 606.76 324.2 606.38 324.22 606C324.65 606.09 325.07 606.18 325.5 606.26C326.08 603.01 326.66 599.75 327.24 596.5C326.88 596.33 326.51 596.17 326.15 596C326.39 595.01 326.64 594.01 326.89 593.02C327.17 593.51 327.46 594.01 327.74 594.5C329.2 593.09 327 594.19 328.69 593.07C330.34 591.99 333.64 592.69 335.5 592.74C339.96 592.85 347.89 593.88 351.58 591.94C351.68 591.73 351.79 591.53 351.89 591.32ZM497.2 742.01C497.42 742.17 497.64 742.34 497.86 742.5C497.88 745.83 497.9 749.17 497.92 752.5C497.71 752.67 497.5 752.83 497.3 753C497.27 749.34 497.23 745.67 497.2 742.01ZM696.2 742.04C696.45 744.86 696.7 747.68 696.95 750.5C696.74 750.67 696.53 750.83 696.32 751C696.28 748.01 696.24 745.03 696.2 742.04ZM463.16 743.78C461.45 743.85 459.75 743.91 458.04 743.98C458.19 743.73 458.35 743.49 458.5 743.24C459.83 743.2 461.17 743.17 462.5 743.13C462.72 743.35 462.94 743.56 463.16 743.78ZM324.21 746C324.2 747.98 324.2 749.96 324.19 751.94C324.2 749.96 324.2 747.98 324.21 746ZM514.71 748C514.73 750.33 514.76 752.67 514.78 755C514.56 752.83 514.33 750.67 514.11 748.5C514.31 748.33 514.51 748.17 514.71 748ZM696.32 752C696.53 752.17 696.74 752.33 696.95 752.5C696.96 754.6 696.97 756.7 696.99 758.8C696.7 758.7 696.42 758.6 696.14 758.5C696.2 756.33 696.26 754.17 696.32 752ZM712.69 752C712.69 754.17 712.7 756.33 712.7 758.5C712.46 758.59 712.22 758.68 711.97 758.77C712.02 756.68 712.07 754.59 712.12 752.5C712.31 752.33 712.5 752.17 712.69 752Z" fill="#113271" fill-rule="evenodd" stroke="#113271" stroke-width="0.25" stroke-linejoin="round"/>
<path d="M341.59 543.19C348.38 541.75 356.21 543.21 360.86 548.68C369.09 558.34 363.85 576.44 351.28 579.71C343.42 581.75 334.4 579.85 329.62 572.84C322.52 562.42 329.26 545.81 341.59 543.19ZM603.38 551.5C602.16 561.83 599.72 572.21 597.81 582.44C596.7 588.41 594.22 594.98 595.5 600.95C611.21 586.4 649.48 581.61 657.73 606.73C662.72 621.93 656.45 639.34 654.19 654.53C652.94 662.89 651.59 671.21 650.28 679.56C649.42 685.09 649.21 690.69 647.33 695.99C638.64 695.99 629.96 695.99 621.28 695.99C620.76 689.4 622.67 682.93 623.8 676.46C626.19 662.85 629.05 649.18 630.9 635.5C632.14 626.32 632.66 615.43 621.29 613.32C612.62 611.7 597.66 613.57 592.28 621.75C589.21 626.42 588.76 636.86 587.86 642.47C586.18 652.86 583.94 663.15 582.2 673.54C580.96 680.88 580.44 688.97 578.07 695.99C569.42 695.99 560.78 695.99 552.14 695.99C551.9 689.44 553.67 682.89 554.77 676.44C557 663.39 559.47 650.4 561.71 637.36C564.69 620.05 567.88 602.77 570.76 585.44C572.64 574.13 573.78 561.94 577.5 551.08C583.26 549.31 597.64 549.34 603.38 551.5ZM827.5 551.38C827.34 555.83 826 560.18 825.12 564.53C823.86 570.78 823.03 577.12 821.76 583.36C820.64 588.89 818.23 595.41 819.5 600.87C836.27 582.43 872.49 585.99 884.41 608.11C892.45 623.02 890.57 640.76 885.75 656.3C875.11 690.64 844 699.63 811.5 698.08C800.18 697.54 783.98 695.55 776 686.5C781.72 654.8 787.52 623.03 793.79 591.43C795.57 582.47 797.18 573.45 798.85 564.47C799.66 560.08 799.84 554.61 802.5 550.98C808.16 549.14 821.6 549.86 827.5 551.38ZM704.5 591.77C706.14 598 703.37 606.14 702.24 612.57C699.9 625.89 697.72 639.24 695.1 652.51C693.02 663.12 692.59 673.61 705.64 675.7C715.94 677.34 730.12 673.73 735.24 663.72C738.18 657.98 738.06 650.74 739.1 644.51C741.17 632.11 743.42 619.71 745.73 607.37C746.73 602.04 746.76 596.14 749.5 591.39C757.83 591.39 766.17 591.39 774.5 591.39C775.67 598.98 770.72 618 769.22 626.55C766.47 642.2 763.83 657.88 761.27 673.56C760.05 680.99 759.86 688.66 758.06 695.99C750.26 695.99 742.47 695.99 734.67 695.99C734.67 691.3 734.67 686.61 734.67 681.91C731.01 686.6 726.89 690.97 721.37 693.89C704.75 702.68 674.59 701.41 668.29 680.25C663.68 664.75 669.36 647.83 671.83 632.46C673.38 622.77 675.21 613.14 676.83 603.46C677.45 599.79 677.66 596.02 678.92 592.5C683.31 589.91 699.09 590.86 704.5 591.77ZM833.64 613.31C827.36 614.23 818.66 616.67 814.94 622.4C812.59 626.02 812.56 631.31 811.81 635.45C810.56 642.47 809.05 649.46 807.96 656.5C807.17 661.57 802.23 674.18 808.73 676.71C812.72 678.26 817.31 678.03 821.5 677.99C840.51 677.85 854.5 665.56 858.73 647.3C862.03 633.07 861.65 614.9 843.5 613.09C840.31 612.77 836.81 612.85 833.64 613.31ZM358.5 752.01C355.71 753.79 354.48 753.72 351.94 751.5C352.26 750.17 352.59 748.83 352.91 747.5C356.94 746.67 358.76 747.8 358.5 752.01ZM577.5 747.1C582.3 746.76 584.29 748.11 583.06 752.98C581.2 752.98 579.35 752.98 577.5 752.98C577.01 751.82 576.52 750.66 576.03 749.5C576.52 748.7 577.01 747.9 577.5 747.1Z" fill="#fe6102" fill-rule="evenodd" stroke="#fe6102" stroke-width="0.25" stroke-linejoin="round"/>
<path d="M502.13 283.2C508.06 283.2 514 283.19 519.94 283.19C530.66 283.19 541.37 283.19 552.08 283.19C554.72 283.19 557.35 283.19 559.99 283.19C562.66 283.19 565.33 283.19 568 283.19C573.28 283.19 578.57 283.2 583.86 283.2C589.61 283.2 595.37 283.2 601.12 283.2C604.12 283.19 607.11 283.19 610.11 283.19C613.12 283.2 616.12 283.2 619.13 283.2C621.76 283.19 624.39 283.19 627.02 283.19C628.66 283.18 630.3 283.16 631.94 283.15C632.28 283.15 632.62 283.14 632.96 283.14C633.3 283.71 633.64 284.28 633.98 284.86C622.7 286.61 611.75 295.59 603.98 303.47C577.89 329.95 576.08 368.61 567.07 402.5C563.61 405.12 557.94 405.72 553.73 407.25C543.27 411.07 533.22 416.19 524.37 422.97C520.81 425.7 515.64 428.85 513.96 432.96C507.61 435.81 498.46 450.97 494.82 457.32C480.74 481.88 474.69 514.15 446.7 527.2C442.05 529.37 437.23 530.97 432.07 531.01C437.44 527.22 448.93 521.17 451 514.17C456.74 510.22 460.49 503.19 463.61 497.12C470.07 484.57 474.14 470.94 481.2 458.69C491.62 440.62 503.95 423.67 521.65 412.12C528.44 407.7 535.91 405.87 543.09 402.5C530.37 402.4 517.66 402.3 504.95 402.21C496.62 402.5 488.29 402.8 479.95 403.09C467.97 403.12 455.98 403.14 443.99 403.16C442.38 403.4 440.76 403.65 439.14 403.89C425.05 403.99 411.12 406.06 397.66 410.21C391.96 411.97 386.23 413.91 380.72 416.2C377.57 417.51 374.52 419.25 371.26 420.11C372.51 418.24 373.75 416.37 375 414.5C375 413.17 375 411.83 375 410.5C375.46 409.67 375.91 408.83 376.37 408C379.34 407.77 381.96 406.31 384.8 405.38C390.92 403.37 397.25 401.44 403.59 400.25C410.16 399.01 416.81 397.73 423.48 397.11C426.65 396.81 429.52 397.18 432.5 396.01C438.31 375.71 440.17 354.22 445.27 333.69C446.8 327.51 449.21 321.27 452.06 315.57C453.83 312.02 457.01 308.65 457.98 304.98C460.35 302.35 462.72 299.71 465.08 297.08C468.76 295.69 472.09 292.21 475.69 290.19C481.31 287.02 487.7 284.97 494.02 283.85C496.72 283.63 499.42 283.41 502.13 283.2ZM639.93 284.85C640.34 285.24 640.75 285.63 641.15 286.02C638.06 300.71 634.98 315.41 631.89 330.1C631.55 331.37 631.21 332.64 630.87 333.91C618.97 333.93 607.06 333.95 595.16 333.97C595.07 333.64 594.98 333.32 594.9 332.99C605.62 311.42 615.99 293.68 639.93 284.85ZM561.93 336.5C557.24 332.77 547.31 334.68 541.5 334.69C523.17 334.72 504.83 334.73 486.5 334.7C478.88 334.69 467.06 331.75 467.07 342.5C472.15 348.12 481.54 346.01 488.5 346.02C507.17 346.03 525.83 346.01 544.5 346.02C550.9 346.02 566.55 347.94 561.93 336.5ZM554.87 360.5C549.96 354.96 540.26 357.07 533.5 357.07C515.17 357.06 496.83 357.11 478.5 357.07C470.51 357.05 458.39 353.99 459.17 365.5C464.12 371.13 473.67 369.04 480.5 369.04C498.83 369.01 517.17 369.03 535.5 369.02C543.08 369.02 555.36 371.53 554.87 360.5ZM249 752.91C246.67 752.91 244.33 752.91 242 752.91C242 755.27 242 757.64 242 760C239.37 761.01 237.75 761.05 235 760.5C232.91 756.11 233.51 743.96 234.5 739C244.36 734.3 257.61 741.53 249 752.91ZM274 744.5C273 747.17 272 749.83 271 752.5C272.62 755.09 273.91 757 273.5 760C266.45 763.36 266.95 758.25 263.5 754C262.04 761.31 263.11 761 255.06 761C255.06 753.67 255.06 746.33 255.06 739C262.35 736.14 269.85 737.88 274 744.5ZM285.94 739C285.94 746.27 285.94 753.54 285.94 760.81C283.3 760.81 280.67 760.81 278.03 760.81C278.03 753.7 278.03 746.6 278.03 739.5C281.09 738.83 282.88 738.08 285.94 739ZM303.5 746C304.97 738.67 303.9 739 311.97 739C311.97 746.17 311.97 753.33 311.97 760.5C303.65 762.19 303.48 758.18 298.58 753C298.58 755.17 298.58 757.33 298.58 759.5C296.67 761.47 294.73 761.05 292 760.5C289.91 756.11 290.51 743.96 291.5 739C299.02 737.5 298.91 741.41 303.5 746ZM335.91 739C335.91 741.17 335.91 743.33 335.91 745.5C334.71 745.75 331.67 745.54 330.72 746.22C329.58 747.03 329.95 757.73 329.5 760C327.12 761.13 325.6 761.02 323 760.5C321.1 756.51 322 750.98 322 746.5C315.64 745.23 316 746.55 316 739.5C322.84 738.03 329.18 737.84 335.91 739ZM379.5 738.28C381.83 738.28 384.17 738.28 386.5 738.28C389.07 742.99 394.66 755.43 395 760.5C390.48 761.4 387.75 761.29 385.5 757C384.05 757 382.07 756.66 380.69 757.19C377.72 758.32 377.56 764.6 371 759.5C371.41 753.36 376.34 743.71 379.5 738.28ZM411.5 745C413 737.5 411.87 739 419.94 739C419.94 746 419.94 753 419.94 760C411.05 763.49 411.5 756.7 406.25 753C406.25 755.61 406.25 758.23 406.25 760.84C403.83 760.84 401.42 760.84 399 760.84C396.97 755.87 397.43 744.35 398.5 739C405.9 736.32 406.5 742.5 411.5 745ZM428.5 738.89C430.17 740.59 431.83 742.3 433.5 744C434.5 742.33 435.5 740.67 436.5 739C439.39 738.45 441.13 738.88 444 739.5C443.61 745.31 438.49 748.24 437.19 753.69C436.7 755.73 436.91 757.95 436.5 760C433.89 761.24 432.11 761.24 429.5 760C429.18 757.64 430.05 755.31 429.47 752.97C428.26 748.15 423.53 743.92 422 738.89C424.17 738.89 426.33 738.89 428.5 738.89ZM466.12 739C466.12 741.26 466.12 743.52 466.12 745.78C464.08 745.78 462.04 745.78 460 745.78C460 750.52 460 755.26 460 760C457.37 761.01 455.75 761.05 453 760.5C451.03 756.38 452 750.51 452 745.89C449.96 745.89 447.92 745.89 445.88 745.89C445.88 743.59 445.88 741.3 445.88 739C450.27 737.73 452.43 738.72 456.53 738.97C458.08 739.06 459.08 738.13 460.53 738.03C462.23 737.92 464.43 738.73 466.12 739ZM475.5 738.58C476.17 741.05 476.83 743.53 477.5 746C483.4 745.94 482.5 744 483.5 739C485.85 738.01 488.26 738.57 490.94 739C490.94 746 490.94 753 490.94 760C488.08 761.12 486.23 760.96 483.19 760.5C483.19 758.17 483.19 755.83 483.19 753.5C480.59 753.02 478.98 752.78 476.77 754C476.77 755.83 476.77 757.67 476.77 759.5C474.46 761.58 471.96 761.09 469 760.5C467.77 757.18 467.6 741.4 469 738.58C471.17 738.58 473.33 738.58 475.5 738.58ZM503 739.5C503 746.61 503 753.73 503 760.84C500.67 760.84 498.33 760.84 496 760.84C493.97 755.87 494.43 744.35 495.5 739C498.04 738.21 500.4 738.98 503 739.5ZM524.5 738.36C526.32 738.36 528.15 738.36 529.97 738.36C529.97 745.74 529.97 753.12 529.97 760.5C522.95 761.92 520.89 758.01 517 753C517 755.33 517 757.67 517 760C514.37 761.01 512.75 761.05 510 760.5C507.63 755.53 509 744.99 509 739.14C511.67 739.14 514.33 739.14 517 739.14C518.5 741.43 520 743.71 521.5 746C522.15 742.73 521.72 740.47 524.5 738.36ZM554.5 740C557.69 744.1 557.5 753.98 556.5 759C548.18 762.97 535.42 761.62 534.03 750.47C533.26 744.33 538.87 738.92 544.53 738.03C547.99 737.49 551.34 738.83 554.5 740ZM620 760.5C617.97 760.91 614.98 761.72 613.03 760.47C611.73 759.63 611.92 757.8 610.31 757.19C608.93 756.66 606.95 757 605.5 757C604.83 758.33 604.17 759.67 603.5 761C600.82 760.97 598.02 761.02 596 759.5C598.67 752.83 601.33 746.17 604 739.5C605.99 738.51 608 737.43 610.31 738.19C612.86 739.03 613.39 742.21 614.19 744.31C616.23 749.67 619.61 754.71 620 760.5ZM637.75 747C637.75 744.5 637.75 742 637.75 739.5C640.71 738.96 643.63 738.34 645.37 740.5C645.37 747.17 645.37 753.83 645.37 760.5C643.55 760.52 641.48 761.1 639.69 760.81C636.11 760.24 634.37 755.13 632 753C632 755.33 632 757.67 632 760C629.37 761.01 627.75 761.05 625 760.5C622.58 755.43 624 744.48 624 738.5C632.68 738.5 632.13 742.19 637.75 747ZM663.5 738.53C665.5 738.53 667.5 738.53 669.5 738.53C670.16 744.4 664.84 746.59 663.19 751.69C662.32 754.36 662.93 757.98 662.5 760.81C660.17 760.81 657.83 760.81 655.5 760.81C654.93 758.2 655.44 755.32 654.81 752.69C653.82 748.54 649.54 743.77 648 739.08C650.5 739.08 653 739.08 655.5 739.08C656.5 740.39 657.5 741.69 658.5 743C660.17 741.51 661.83 740.02 663.5 738.53ZM691.81 738.66C691.81 740.94 691.81 743.22 691.81 745.5C690.64 745.75 687.65 745.55 686.72 746.22C685.45 747.13 686 758.66 686 760.84C683.67 760.84 681.33 760.84 679 760.84C677.04 756.05 678.5 750.78 678.5 746C671.76 746 670.33 745.7 671.5 738.66C678.27 738.66 685.04 738.66 691.81 738.66ZM708.5 738C716.35 738.08 715.56 741.12 718.5 747C723.14 741.03 721.59 737.41 730.94 739C730.94 746 730.94 753 730.94 760C727.64 761.3 725.17 761.56 722.5 759C719.48 760.89 718.63 759.92 715.5 760.06C712.73 760.19 710.95 761.09 708 760.5C706.23 756.78 705.99 741.23 708.5 738ZM753 739.5C752.96 743.61 751.62 747.28 752 751.5C752.29 754.66 753.15 756.75 752.5 760C747.69 761.79 740.97 761.49 736 760.5C733.91 756.11 734.51 743.96 735.5 739C737.76 738.29 739.15 739.14 741.5 739C745.93 738.74 748.64 737.32 753 739.5ZM694.06 739C696.7 739 699.33 739 701.97 739C701.97 746.31 701.97 753.61 701.97 760.92C699.33 760.92 696.7 760.92 694.06 760.92C694.06 753.61 694.06 746.31 694.06 739ZM249.7 744.5C246.96 739.63 241.04 739.96 236.04 740.5C235.96 744.83 235.95 749.17 235.96 753.5C235.96 754.67 235.48 757.3 236.2 758.29C236.88 759.24 237.57 758.74 238.5 759.04C240.65 756.71 239.94 754.88 240 751.5C243.62 751.6 246.46 751.15 249.7 749.5C249.7 747.83 249.7 746.17 249.7 744.5ZM281.5 740.35C280.7 741.04 280.56 740.28 280.09 741.55C279.61 742.86 279.61 757.34 280.18 758.29C281.24 760.02 280.08 757.57 281.5 759.04C282.95 757.85 281.99 759.8 283.13 758.3C283.91 757.27 283.41 754.81 283.46 753.59C283.55 751.58 284.39 742.36 283.31 741.02C282.81 740.4 282.15 740.59 281.5 740.35ZM293.5 740.32C292.88 742.76 291.98 756.41 293.15 758.3C294.21 760.01 293.09 757.62 294.5 759.05C295.94 757.89 295 759.77 296.14 758.3C297.07 757.1 296.27 748.86 296.5 746.73C300.62 750.44 303.71 758.25 309.5 758.84C310.06 756.29 310.99 742.69 309.69 740.82C308.82 739.57 309.65 741.31 308.5 740.32C305.6 742.87 307.13 749.26 306.5 753.18C302.58 748.91 299.22 741.79 293.5 740.32ZM381.5 740.01C378.85 742.69 373.44 755.28 373.5 759.01C376.49 758.34 377.06 757.36 378.5 754.71C380.75 754.95 385.34 754.2 387.27 755.28C390.53 757.11 386.44 758.95 392.52 758.5C390.86 754.09 388.81 749.84 386.98 745.49C386.41 744.16 386 741.64 384.81 740.71C383.74 739.88 382.78 740.13 381.5 740.01ZM416.5 740.24C415.72 740.45 414.92 740.08 414.34 740.82C413.22 742.28 414.06 750.29 413.5 752.75C410.44 748.31 406.76 741.93 401.5 740.42C400.16 744.63 400.56 749.01 400.51 753.5C400.5 754.4 399.95 757.38 400.47 758.15C401.06 759.02 401.63 758.65 402.5 759.04C403.93 757.58 402.77 760.03 403.84 758.3C404.92 756.54 404.01 748.73 404.5 746.06C407.86 750.08 411.42 757.84 416.5 759C417.77 756.01 418.51 742.58 416.5 740.24ZM425.5 740.34C425.61 744.43 430.39 747.78 431.53 751.84C432.59 755.64 430.36 756.13 433.5 759.03C436.38 756.07 434.16 755.38 435.34 751.77C436.7 747.6 441.54 744.4 441.5 740.08C437.09 741.02 436.25 745.28 433.5 748.51C430.58 745.26 430.23 741.22 425.5 740.34ZM471.5 740.14C470.18 744.31 470.77 749.07 470.81 753.5C470.82 754.77 470.32 757.19 471.06 758.3C472.16 759.93 471.07 757.7 472.5 759.04C473.92 757.71 472.85 759.89 473.94 758.29C474.97 756.78 474.3 752.71 474.5 750.87C477.83 750.87 481.17 750.87 484.5 750.87C484.82 752.77 484.21 756.71 485.18 758.3C486.26 760.07 485.05 757.55 486.5 759.04C487.35 758.72 488.08 759.14 488.65 758.23C489.28 757.25 488.72 754.63 488.7 753.5C488.67 751.5 489.3 742.11 488.21 741.07C487.23 740.13 487.66 741.13 486.5 740.42C484.11 741.26 484.96 745.52 484.5 747.87C481.15 747.87 477.8 747.87 474.46 747.87C474.14 744.52 474.97 741.48 471.5 740.14ZM497.2 742.01C497.23 745.67 497.27 749.34 497.3 753C497.19 755.68 496.94 757.12 498.5 759.02C499.43 758.73 500.16 759.23 500.86 758.29C501.61 757.29 501.13 754.68 501.13 753.5C501.12 749.14 501.37 744.79 500.5 740.56C498.32 740.39 497.92 740.1 497.2 742.01ZM514.78 755C514.76 752.67 514.73 750.33 514.71 748C514.55 746.47 514.38 746.96 515.5 746.48C518.51 750.81 522.14 758.18 527.5 759.03C528.28 755.32 529.22 742.74 526.51 740.5C525.44 741.24 526.1 739.81 525.25 740.84C524.28 742.03 524.92 750.71 524.5 752.97C522.69 750.48 517.73 742.29 515.3 741.15C514.11 740.59 512.77 740.73 511.5 740.63C510.82 744.84 511.03 749.2 511.01 753.5C511 754.68 510.53 757.26 511.25 758.27C511.9 759.2 512.59 758.73 513.5 759.05C514.8 757.54 514.86 757.3 514.78 755ZM554.06 743.5C548.22 737.47 536.73 740.12 536.28 749.59C536.19 751.32 537.05 753.12 537.98 754.53C542.05 760.75 548.78 758.89 554.81 757.5C555.17 749.99 556.68 746.83 547.7 748.5C549.52 749.92 553.27 752.85 549.78 755.34C545.99 758.04 540.58 754.6 540.22 750.45C539.83 746.08 542.95 742.91 547.32 743.41C548.96 743.59 550.77 745.18 552.41 744.84C553.38 744.63 553.39 744.04 554.06 743.5ZM609.5 740.15C608.2 740.21 607.28 739.87 606.19 740.72C605.16 741.51 604.85 743.78 604.43 744.92C603.78 746.69 598.81 757.42 599.26 758.33C599.91 759.65 599.5 757.96 600.5 759.04C602.82 757.85 603.05 756.38 604.5 754.23C606.91 755.13 610.06 754.21 612.28 755.25C615.31 756.67 612.34 758.55 617.5 758.84C614.83 752.61 612.17 746.38 609.5 740.15ZM658.5 748C656.44 744.2 656.05 741.36 651.8 740.5C650.32 743.77 656.07 748.25 656.81 751.6C657.59 755.08 655.96 756.36 658.5 759.02C660.11 757.75 658.81 759.9 660.13 758.3C661.43 756.71 660.46 752.75 661.26 750.76C662.75 747 666.76 744.28 667.5 740.27C661.4 740.5 662.84 745.37 658.5 748ZM711.97 758.77C712.22 758.68 712.46 758.59 712.7 758.5C712.7 756.33 712.69 754.17 712.69 752C712.63 749.76 712.56 747.53 712.5 745.29C714.5 749.89 716.5 754.49 718.5 759.1C722.79 756.18 722.82 749.99 725.5 745.71C725.54 747.96 724.93 756.79 726.01 758.3C727.15 759.91 726.03 757.73 727.5 759.04C728.93 757.56 727.75 760.04 728.82 758.29C730.03 756.3 729.08 743.25 728.5 740.79C721.38 739.38 722.84 748.68 718.5 752.89C717.6 750.61 714.98 742.26 713.25 741.11C712.18 740.4 710.72 740.53 709.5 740.38C709.32 746.09 709.13 751.79 708.95 757.5C710.32 758.83 709.81 758.82 711.97 758.77ZM257.5 740.45C256.62 744.72 256.92 749.1 256.91 753.5C256.91 754.72 256.41 757.2 257.18 758.25C257.83 759.13 258.62 758.75 259.5 759.06C261.09 756.87 260.49 754.14 261.5 751.44C268.78 751.7 264.79 757.74 271.5 759.01C271.49 756.2 269.85 753.88 268.07 751.5C270.86 748.62 271.53 746.98 270.5 743C266.93 739.83 262.04 740.57 257.5 740.45ZM324.21 746C324.2 747.98 324.2 749.96 324.19 751.94C324 755.25 323.41 756.73 325.5 759.05C326.42 758.75 327.13 759.23 327.8 758.29C328.89 756.74 327.92 746.69 328.5 743.88C331.25 743.87 333.03 744.17 334.98 742.5C333.82 741.17 335.71 742.09 334.26 741.04C333.34 740.37 319.83 740.31 318.55 740.88C317.29 741.44 317.92 741.64 317.22 742.5C320.22 744.77 322.51 742.36 324.21 746ZM458.04 743.98C459.75 743.91 461.45 743.85 463.16 743.78C464.4 742.28 463.91 742.67 463.5 740.64C458.81 740.64 450.3 738.98 447.11 742.5C449.07 743.98 451 743.49 453.5 743.82C453.97 746.5 453.15 756.85 454.19 758.29C454.88 759.25 455.56 758.72 456.5 759.02C458.93 755.64 457.42 748.33 458.04 743.98ZM629.09 758.76C629.31 758.67 629.53 758.59 629.75 758.5C629.63 756.33 629.51 754.17 629.39 752C629.46 750.17 629.52 748.33 629.59 746.5C633.46 750.42 636.94 757.89 642.5 758.99C643.09 756.31 644.08 743.85 642.83 741.65C642.56 741.19 641.85 741.17 641.5 740.77C641.14 741.17 640.41 741.17 640.14 741.63C639.12 743.41 640.03 750.04 639.5 752.64C634.66 748.87 632.93 741.55 626.5 740.5C626.31 746.17 626.12 751.83 625.93 757.5C627.33 758.81 626.9 758.79 629.09 758.76ZM691.03 742.5C689.79 741.1 691.81 742.1 690.28 741.01C689.63 740.53 675.34 740.41 674.63 740.89C672.77 742.12 675.22 740.92 673.65 742.5C675.53 743.96 677.98 743.73 680.5 744.12C680.66 746.5 679.89 757.02 680.88 758.29C682.03 759.76 681.08 757.9 682.5 759.04C683.92 757.56 682.76 760.04 683.81 758.29C685.07 756.2 683.97 746.98 684.5 743.86C687.3 743.86 689.04 744.18 691.03 742.5ZM696.2 742.04C696.24 745.03 696.28 748.01 696.32 751C696.32 751.33 696.32 751.67 696.32 752C696.26 754.17 696.2 756.33 696.14 758.5C696.42 758.6 696.7 758.7 696.99 758.8C697.82 758.85 698.66 758.9 699.5 758.96C699.5 752.88 699.5 746.8 699.5 740.72C697.33 740.87 697.5 740.65 696.2 742.04ZM737.3 742.93C737.31 744.96 737.32 746.98 737.33 749C737.39 751.94 737.44 754.87 737.5 757.81C739.29 758.59 748.41 759.65 750.25 758.69C751.82 757.87 749.65 758.68 751.04 757.5C749.6 755.94 752.01 757.29 750.29 756.07C747.92 754.4 743.77 756.47 740.83 754.5C741.57 747.4 745.56 753.22 749.3 750.9C750.97 749.86 748.69 750.89 750.09 749.5C748.53 748.02 751.14 749.29 749.31 748.17C745.45 745.83 741.54 751.45 740.96 744.5C744.16 742.2 747.93 744.93 751.02 742.5C749.74 741.04 751.86 742.15 750.29 741.01C748.91 740.01 741.51 740.57 739.5 740.55C737.81 741.51 737.85 741.06 737.3 742.93ZM246.14 745.5C244.66 748.22 243.24 748.26 240.19 748.55C240.19 746.87 240.19 745.18 240.19 743.5C243.08 743.43 244.21 743.4 246.14 745.5ZM267.93 745.5C266.54 749.11 263.97 748.48 260.62 747.5C260.67 746.5 260.72 745.5 260.77 744.5C263.69 743.73 265.4 743.64 267.93 745.5ZM382.5 743.72C383.66 746.48 384.83 749.25 385.99 752.02C383.83 752.02 381.66 752.02 379.5 752.02C380.5 749.25 381.5 746.48 382.5 743.72ZM608.5 744.18C609.5 746.78 610.5 749.37 611.5 751.96C609.32 751.96 607.14 751.96 604.96 751.96C606.14 749.37 607.32 746.78 608.5 744.18ZM353.5 745C356.77 745.22 358.65 745.98 360.75 748.5C360.75 750.17 360.75 751.83 360.75 753.5C357.6 755.2 354.75 755.55 351.5 754C348.84 750.58 350.09 747.24 353.5 745ZM585.75 748.5C585.75 750.17 585.75 751.83 585.75 753.5C581.51 755.78 579.06 755.46 574.53 754C574.53 752.17 574.53 750.33 574.53 748.5C576.67 742.61 582.58 744.7 585.75 748.5ZM124.16 746C146.61 746 169.05 746 191.5 746C197.3 746 212.89 744.3 217 747.5C216.98 749.06 217.44 751.39 215.97 752.47C214.59 753.47 212.1 753 210.5 753C205.5 753 200.5 753 195.5 753C171.72 753 147.94 753 124.16 753C124.16 750.67 124.16 748.33 124.16 746ZM769.16 746C806.74 746 844.33 746 881.91 746C881.91 748.33 881.91 750.66 881.91 752.99C844.33 752.99 806.74 752.99 769.16 752.99C769.16 750.66 769.16 748.33 769.16 746ZM358.5 752.01C358.76 747.8 356.94 746.67 352.91 747.5C352.59 748.83 352.26 750.17 351.94 751.5C354.48 753.72 355.71 753.79 358.5 752.01ZM543.83 747C543.59 748.5 543.36 750 543.12 751.5C543.58 752 544.04 752.5 544.5 753C545.67 752.83 546.83 752.67 548 752.5C546.85 752.17 545.69 751.83 544.54 751.5C544.3 750 544.06 748.5 543.83 747ZM577.5 747.1C577.01 747.9 576.52 748.7 576.03 749.5C576.52 750.66 577.01 751.82 577.5 752.98C579.35 752.98 581.2 752.98 583.06 752.98C584.29 748.11 582.3 746.76 577.5 747.1ZM215.03 749.5C213.63 748.08 216 749.19 214.3 748.12C213.03 747.33 209.96 747.93 208.5 747.93C203.83 747.94 199.17 747.95 194.5 747.94C177.83 747.92 161.17 747.96 144.5 747.91C141.93 747.9 127.9 747.25 126.59 748.03C126.09 748.32 126.1 749.11 125.67 749.5C126.09 749.85 126.14 750.57 126.61 750.83C128.32 751.77 141.64 751.05 144.5 751.05C161.17 751.05 177.83 751.05 194.5 751.04C199.17 751.03 203.83 751.06 208.5 751.05C209.98 751.05 213 751.62 214.29 750.83C216.02 749.78 213.58 750.92 215.03 749.5ZM881.02 749.5C879.76 748.15 881.82 749.02 880.29 748.02C879.1 747.24 875.9 747.91 874.5 747.92C869.17 747.94 863.83 747.92 858.5 747.92C837.17 747.9 815.83 747.95 794.5 747.92C788.83 747.91 783.17 747.92 777.5 747.92C775.86 747.92 772.11 747.18 770.71 748.11C769.13 749.18 771.36 748.09 770.09 749.5C771.42 750.87 769.13 749.76 770.73 750.78C772.22 751.72 775.79 751.04 777.5 751.04C783.17 751.03 788.83 751.04 794.5 751.04C815.83 751.04 837.17 750.99 858.5 751.04C863.83 751.05 869.17 751.04 874.5 751.04C876 751.04 878.98 751.61 880.3 750.81C882.1 749.71 879.51 750.97 881.02 749.5Z" fill="#ffffff" fill-rule="evenodd" stroke="#ffffff" stroke-width="0.25" stroke-linejoin="round"/>
<path d="M406.91 205.13C461.22 205.12 515.53 205.12 569.84 205.12C515.53 205.12 461.22 205.12 406.91 205.13ZM586.11 205.88C587.74 205.96 589.37 206.05 591 206.13C587.35 206.25 583.7 206.38 580.05 206.5C582.07 206.29 584.09 206.08 586.11 205.88ZM401.17 214.11C401.34 214.24 401.5 214.37 401.67 214.5C401.61 216.42 401.56 218.34 401.5 220.26C401.3 219.19 401.09 218.12 400.89 217.05C400.98 216.07 401.08 215.09 401.17 214.11ZM400.17 221C400.4 221.17 400.63 221.33 400.87 221.5C400.75 223.53 400.62 225.56 400.5 227.58C400.31 226.78 400.13 225.97 399.94 225.16C400.02 223.78 400.09 222.39 400.17 221ZM645.17 223.93C649.18 226.6 653.19 229.28 657.19 231.96C656.89 232.14 656.59 232.32 656.28 232.5C652.69 229.96 649.09 227.43 645.5 224.89C645.39 224.57 645.28 224.25 645.17 223.93ZM399.17 229.04C399.28 231.41 399.39 233.78 399.5 236.15C399.28 235.39 399.06 234.62 398.83 233.86C398.94 232.25 399.06 230.65 399.17 229.04ZM658.21 232.92C660.1 234.58 662 236.24 663.9 237.9C662 236.24 660.1 234.58 658.21 232.92ZM398.17 237.06C398.37 237.21 398.58 237.35 398.79 237.5C398.69 239.67 398.6 241.83 398.5 244C398.29 243.03 398.09 242.05 397.88 241.07C397.98 239.74 398.07 238.4 398.17 237.06ZM663.9 237.9C667.29 241.51 670.67 245.13 674.06 248.74C670.67 245.13 667.29 241.51 663.9 237.9ZM397.16 244.89C399.09 249.01 396.09 262.13 395.65 267.5C395.38 266.64 395.12 265.77 394.85 264.91C395.62 258.24 396.39 251.56 397.16 244.89ZM675.05 249.8C675.74 250.88 676.44 251.96 677.13 253.04C676.18 252.19 675.24 251.35 674.29 250.5C674.54 250.27 674.79 250.03 675.05 249.8ZM677.13 253.04C679.44 256.66 681.75 260.28 684.06 263.9C681.75 260.28 679.44 256.66 677.13 253.04ZM685 265.12C685.69 266.72 686.38 268.31 687.08 269.9C686.13 268.43 685.19 266.97 684.25 265.5C684.5 265.37 684.75 265.25 685 265.12ZM394.16 269.06C394.39 269.2 394.63 269.35 394.86 269.5C394.74 271.64 394.62 273.78 394.5 275.92C394.28 274.89 394.06 273.87 393.84 272.84C393.95 271.58 394.05 270.32 394.16 269.06ZM689.92 275.95C690.62 277.99 691.33 280.04 692.04 282.08C691.86 282.42 691.68 282.77 691.5 283.12C690.72 280.91 689.94 278.71 689.16 276.5C689.41 276.32 689.66 276.14 689.92 275.95ZM393.16 277.15C393.28 279.69 393.39 282.23 393.5 284.77C393.29 283.52 393.09 282.27 392.88 281.02C392.97 279.73 393.07 278.44 393.16 277.15ZM632.96 283.14C632.62 283.14 632.28 283.15 631.94 283.15C630.3 283.16 628.66 283.18 627.02 283.19C624.39 283.19 621.76 283.19 619.13 283.2C616.12 283.2 613.12 283.2 610.11 283.19C607.11 283.19 604.12 283.19 601.12 283.2C595.37 283.2 589.61 283.2 583.86 283.2C578.57 283.2 573.28 283.19 568 283.19C565.33 283.19 562.66 283.19 559.99 283.19C557.35 283.19 554.72 283.19 552.08 283.19C541.37 283.19 530.66 283.19 519.94 283.19C514 283.19 508.06 283.2 502.13 283.2C499.58 283.1 497.04 283 494.5 282.91C494.34 283.22 494.18 283.54 494.02 283.85C487.7 284.97 481.31 287.02 475.69 290.19C472.09 292.21 468.76 295.69 465.08 297.08C469.26 289.42 484.38 284.39 492.52 282.82C501.56 281.07 511.3 282 520.5 282C538.5 282.01 556.5 282.06 574.5 282.01C587.5 281.98 600.5 281.96 613.5 282.01C618.5 282.03 623.5 281.95 628.5 282.02C629.3 282.03 633.22 281.62 633.63 282.47C633.77 282.75 633.07 282.84 632.96 283.14ZM639.93 284.85C615.99 293.68 605.62 311.42 594.9 332.99C593.59 329.8 597.32 324.61 598.93 321.44C604.56 310.43 612.85 299.57 623.1 292.5C622.28 292.48 621.49 292.03 620.67 292.11C618.67 292.28 616.13 294.86 614.52 295.93C608.36 300.02 602.73 305.95 598.37 311.87C584.71 330.42 578.97 353.42 574.18 375.57C572.5 383.31 570.94 398.14 567.19 404.5C554.33 408.41 541.53 412.91 530.1 420.49C524.64 424.11 519.64 430.24 513.96 432.96C515.64 428.85 520.81 425.7 524.37 422.97C533.22 416.19 543.27 411.07 553.73 407.25C557.94 405.72 563.61 405.12 567.07 402.5C576.08 368.61 577.89 329.95 603.98 303.47C611.75 295.59 622.7 286.61 633.98 284.86C635.82 284.53 637.66 284.21 639.5 283.88C639.64 284.2 639.79 284.52 639.93 284.85ZM392.15 286.01C393.68 289.79 391.12 303.56 390.5 308.39C390.28 307.26 390.07 306.13 389.85 305C390.62 298.67 391.39 292.34 392.15 286.01ZM641.15 286.02C642.89 289.39 640.21 295.96 639.38 299.8C637.17 310.04 634.99 320.24 632.9 330.5C632.67 330.84 632.91 331.55 632.52 331.66C632.38 331.7 631.94 330.22 631.89 330.1C634.98 315.41 638.06 300.71 641.15 286.02ZM465.08 297.08C462.72 299.71 460.35 302.35 457.98 304.98C459 301.81 462 298.44 465.08 297.08ZM696.85 304.11C696.94 306.1 697.04 308.09 697.13 310.07C697.13 314.33 697.13 318.59 697.13 322.85C697.03 324.88 696.94 326.9 696.84 328.93C696.84 320.66 696.84 312.38 696.85 304.11ZM457.98 304.98C457.01 308.65 453.83 312.02 452.06 315.57C449.21 321.27 446.8 327.51 445.27 333.69C440.17 354.22 438.31 375.71 432.5 396.01C429.52 397.18 426.65 396.81 423.48 397.11C416.81 397.73 410.16 399.01 403.59 400.25C397.25 401.44 390.92 403.37 384.8 405.38C381.96 406.31 379.34 407.77 376.37 408C376.63 406.7 376.9 405.41 377.16 404.11C377.94 404.75 378.72 405.4 379.5 406.04C385.65 403.36 392.33 402.48 398.49 400.07C399.18 399.8 399.91 399.07 400.55 398.91C401.41 398.69 402.58 399.02 403.49 398.92C408.53 398.34 413.52 396.96 418.55 396.25C423.08 395.61 427.27 395.81 431.71 394.5C433.65 382.44 436.11 370.29 438.82 358.41C441.18 348.02 442.5 337.53 445.85 327.38C448.04 320.75 452.1 308.92 457.98 304.98ZM389.16 308.9C389.43 309.1 389.71 309.3 389.99 309.5C389.49 314.48 389 319.46 388.5 324.45C388.29 323.31 388.08 322.17 387.87 321.04C388.3 316.99 388.73 312.95 389.16 308.9ZM387.16 325.11C387.36 325.24 387.56 325.37 387.76 325.5C387.67 327.89 387.59 330.27 387.5 332.66C387.29 331.43 387.08 330.19 386.86 328.96C386.96 327.68 387.06 326.4 387.16 325.11ZM696.1 332.87C696.01 333.87 695.93 334.87 695.84 335.87C695.73 334.18 695.61 332.48 695.5 330.78C695.7 331.48 695.9 332.18 696.1 332.87ZM595.16 333.97C607.06 333.95 618.97 333.93 630.87 333.91C628.74 335.67 625.7 335.07 622.5 335.07C616.17 335.08 609.83 335.07 603.5 335.09C600.6 335.1 597.27 335.49 595.16 333.97ZM561.93 336.5C566.55 347.94 550.9 346.02 544.5 346.02C525.83 346.01 507.17 346.03 488.5 346.02C481.54 346.01 472.15 348.12 467.07 342.5C467.06 331.75 478.88 334.69 486.5 334.7C504.83 334.73 523.17 334.72 541.5 334.69C547.31 334.68 557.24 332.77 561.93 336.5ZM560.88 337.5C556.78 334.65 545.75 336.07 540.5 336.06C523.17 336.04 505.83 336.1 488.5 336.02C482.15 335.99 469.7 333.17 468.2 341.5C472.88 346.82 481.94 344.98 488.5 344.96C506.17 344.9 523.83 344.99 541.5 344.95C548.56 344.93 561.8 347.77 560.88 337.5ZM384.17 349.15C386.21 354.4 383.08 364.6 382.7 370.5C382.42 370 382.15 369.51 381.87 369.01C382.64 362.39 383.4 355.77 384.17 349.15ZM687.06 366.89C684.41 375.79 678.68 386.18 672.48 393.1C673.08 389.04 681.08 377.38 683.47 372.61C683.83 371.9 686.2 366.41 686.42 366.3C686.72 366.15 687.01 366.89 687.06 366.89ZM381.18 372.12C381.36 372.25 381.53 372.37 381.7 372.5C381.63 374.8 381.57 377.11 381.5 379.41C381.3 378.32 381.09 377.23 380.89 376.14C380.99 374.8 381.09 373.46 381.18 372.12ZM380.17 380.08C380.38 380.22 380.59 380.36 380.8 380.5C380.36 385.05 379.93 389.59 379.5 394.14C379.3 393.44 379.1 392.73 378.9 392.03C379.32 388.05 379.75 384.06 380.17 380.08ZM378.17 395.04C378.4 395.19 378.63 395.35 378.86 395.5C378.74 397.45 378.62 399.41 378.5 401.36C378.3 400.89 378.1 400.42 377.9 399.95C377.99 398.31 378.08 396.67 378.17 395.04ZM670.04 396.12C668.5 398.1 666.95 400.08 665.4 402.06C665.39 401.54 665.37 401.02 665.36 400.5C666.92 399.04 668.48 397.58 670.04 396.12ZM663.97 403.88C660.6 407.22 657.24 410.56 653.87 413.9C656.94 410.43 660.01 406.97 663.08 403.5C663.38 403.63 663.67 403.75 663.97 403.88ZM439.14 403.89C439.42 404.19 439.69 404.5 439.96 404.8C436.98 405.75 433.99 406.7 431 407.65C430.75 407 431.31 406.49 430.37 406.01C427.28 404.43 413.01 407.75 409.24 408.64C390.71 413.04 369.77 419.72 355.18 432.56C351.95 435.4 348.54 437.96 345.41 440.92C344.68 441.6 342.18 443.37 342.25 444.44C342.3 445.37 342.69 444.64 343 445.5C343.03 445.53 343.12 446.56 343.5 446.56C343.95 446.56 344.31 444.4 344.53 444.03C345.3 442.71 349.14 438.44 350.66 438.22C351.65 438.08 351.73 438.67 352.5 439C355.1 430.25 357.4 439.26 357.5 433C360.05 435.44 363.34 438.4 357 438.5C358 440.17 359 441.83 360 443.5C358.83 444.33 357.67 445.17 356.5 446C358.28 448.6 361.14 447.87 360 451.5C358.37 453.01 360.04 451.47 357.5 452C355.99 454.03 357.14 453.99 359 455.5C353.97 456.18 355.28 455.22 351.5 459C353 459.5 354.5 460 356 460.5C348.62 464.19 353.09 466.62 351.97 473.47C351.46 476.6 350.5 476.51 350.5 480.26C357.43 467.44 365.81 455.82 375.31 444.83C379 440.56 383.74 434.05 388.93 431.93C386.08 437.23 375.18 446.27 370.6 452.18C360.16 465.66 352.26 479.98 344.64 495.17C341.66 501.1 338.55 507.4 336.9 513.81C323.77 513.62 310.63 513.43 297.5 513.24C299.37 505.48 304.2 497.58 307.84 490.35C318 470.14 331.33 450.88 348.59 436.06C353.48 431.87 358.7 428.07 364.09 424.56C366.46 423.01 369.1 421.87 371.26 420.11C374.52 419.25 377.57 417.51 380.72 416.2C386.23 413.91 391.96 411.97 397.66 410.21C411.12 406.06 425.05 403.99 439.14 403.89ZM430.05 407.82C422.68 411.21 415.3 414.6 407.93 417.99C410.17 414.78 426.42 406.92 430.05 407.82ZM651.08 416.04C649.82 417.06 648.55 418.07 647.29 419.08C648.36 417.85 649.43 416.62 650.5 415.39C650.69 415.6 650.89 415.82 651.08 416.04ZM407.93 417.99C404.92 419.97 401.91 421.95 398.91 423.93C401.91 421.95 404.92 419.97 407.93 417.99ZM646.25 420.05C645.45 420.68 644.64 421.31 643.84 421.95C643.49 421.8 643.14 421.65 642.78 421.5C643.69 420.77 644.59 420.03 645.5 419.3C645.75 419.55 646 419.8 646.25 420.05ZM398.91 423.93C397.6 424.95 396.3 425.97 394.99 427C396.3 425.97 397.6 424.95 398.91 423.93ZM637.17 426.5C633.81 428.36 630.46 430.21 627.11 432.07C628.9 429.44 633.84 426.8 637.17 426.5ZM394.99 427C392.97 428.64 390.95 430.29 388.93 431.93C390.95 430.29 392.97 428.64 394.99 427ZM513.96 432.96C512.28 436.51 508.69 439.41 506.18 442.59C501.35 448.73 497.48 455.42 493.61 462.18C479.48 486.81 474.76 517.25 445.46 529.5C450.29 529.95 455.13 530.39 459.96 530.84C453.89 531.31 436.32 533.68 432.07 531.01C437.23 530.97 442.05 529.37 446.7 527.2C474.69 514.15 480.74 481.88 494.82 457.32C498.46 450.97 507.61 435.81 513.96 432.96ZM623.87 434C621.55 435.02 619.23 436.04 616.92 437.07C616.49 436.88 616.07 436.69 615.65 436.5C618.26 435.41 620.88 434.32 623.5 433.24C623.62 433.49 623.75 433.74 623.87 434ZM586.89 445.84C586.21 445.92 585.52 446 584.84 446.07C583.89 445.88 582.93 445.69 581.98 445.5C583.49 445.45 584.99 445.39 586.5 445.34C586.63 445.51 586.76 445.68 586.89 445.84ZM581.02 446.87C580.07 446.98 579.12 447.08 578.16 447.19C577.34 446.96 576.52 446.73 575.69 446.5C577.3 446.39 578.9 446.28 580.5 446.17C580.67 446.4 580.85 446.64 581.02 446.87ZM573.17 447.88C571.44 448.16 569.72 448.44 568 448.72C567.98 448.32 567.97 447.91 567.95 447.5C569.69 447.63 571.43 447.75 573.17 447.88ZM563.87 448.85C560.89 449.06 557.92 449.28 554.95 449.5C554.96 449.51 554.98 449.53 555 449.54C553.87 449.2 552.75 448.85 551.62 448.5C555.7 448.62 559.78 448.73 563.87 448.85ZM543.94 449.85C541.31 449.91 538.69 449.96 536.07 450.02C536.21 449.74 536.36 449.45 536.5 449.17C538.83 449.21 541.17 449.25 543.5 449.29C543.65 449.47 543.79 449.66 543.94 449.85ZM534.14 456.11C534.04 457.05 533.94 457.99 533.84 458.93C533.61 458.79 533.39 458.64 533.16 458.5C533.28 457.12 533.39 455.73 533.5 454.35C533.71 454.94 533.93 455.52 534.14 456.11ZM329.5 458.79C328.57 460.02 327.63 461.26 326.7 462.5C329.98 461.87 329.47 462.23 329.5 458.79ZM533.15 462.07C532.05 468.7 530.95 475.33 529.84 481.96C529.23 480.14 528.61 478.32 528 476.5C528.78 476.05 529.28 476.4 529.82 475.47C530.88 473.62 532.06 463.11 532.3 460.5C532.58 461.02 532.87 461.54 533.15 462.07ZM325 467.5C322.09 467.64 322.18 468.93 320.47 471.5C322.95 470.89 323.57 469.78 325 467.5ZM351 469.5C348.96 469.53 348.58 469.92 347 471.5C349.04 471.47 349.42 471.08 351 469.5ZM342.5 480.08C342.85 480.56 343.86 480.99 343.56 481.5C343.28 481.97 334.48 482.2 333 482.5C335.6 483.34 345.91 485.28 348.28 483.96C349.43 483.33 349.88 481.13 350.34 480.08C347.72 480.08 345.11 480.08 342.5 480.08ZM332 481.18C330 481.18 328 481.18 326 481.18C327.16 481.78 329.84 483.84 331.31 482.36C331.63 482.04 331.61 481.41 332 481.18ZM529.77 483C529.48 484.35 529.19 485.71 528.9 487.06C528.67 486.87 528.44 486.69 528.21 486.5C528.31 485.23 528.4 483.97 528.5 482.7C528.92 482.8 529.35 482.9 529.77 483ZM528.85 488C527.86 493.03 526.86 498.06 525.86 503.09C525.58 502.89 525.29 502.7 525 502.5C525.83 497.78 526.67 493.06 527.5 488.34C527.95 488.23 528.4 488.11 528.85 488ZM525.07 504.89C523.71 510.47 519.61 517.63 514.24 520.1C515.25 518.08 517.05 516.85 518.49 515C520.9 511.92 522.85 508.17 524.14 504.5C524.45 504.63 524.76 504.76 525.07 504.89ZM511.07 522.29C509.81 522.92 508.55 523.55 507.29 524.17C507.36 523.87 507.43 523.56 507.5 523.25C508.69 522.93 509.88 522.61 511.07 522.29ZM494.83 527.82C492.89 528.1 490.94 528.39 489 528.67C488.72 528.28 488.44 527.89 488.16 527.5C490.39 527.61 492.61 527.71 494.83 527.82ZM485.08 528.85C482.39 529.15 479.69 529.45 477 529.75C476.78 529.33 476.55 528.92 476.33 528.5C479.25 528.62 482.16 528.73 485.08 528.85ZM474.12 529.85C470.98 530.06 467.84 530.28 464.7 530.5C464.8 530.51 464.9 530.51 465 530.52C464.44 530.18 463.88 529.84 463.32 529.5C466.71 529.37 470.11 529.24 473.5 529.1C473.71 529.35 473.91 529.6 474.12 529.85ZM225.95 559.97C227.38 560.64 228.81 561.31 230.24 561.98C229.99 562.22 229.75 562.45 229.5 562.69C228.07 561.96 226.64 561.23 225.21 560.5C225.46 560.32 225.71 560.15 225.95 559.97ZM231.21 562.91C238.12 566.07 242.51 574.78 243.1 582.08C242.85 582.55 242.6 583.03 242.35 583.5C241.6 578.46 240.16 573.56 237.04 569.39C235.26 567 232.56 565.41 231.21 562.91ZM523.74 570C523.45 571.36 523.16 572.72 522.87 574.08C522.61 573.88 522.35 573.69 522.1 573.5C522.23 572.09 522.37 570.68 522.5 569.27C522.91 569.52 523.32 569.76 523.74 570ZM522.71 576C522.41 577.3 522.12 578.6 521.83 579.89C521.64 579.76 521.45 579.63 521.26 579.5C521.34 577.95 521.42 576.39 521.5 574.84C521.9 575.22 522.3 575.61 522.71 576ZM187.92 577.15C184.62 577.15 181.33 577.14 178.04 577.14C177.53 576.85 177.01 576.56 176.5 576.27C184.55 576.34 192.6 576.42 200.65 576.5C196.4 576.72 192.16 576.93 187.92 577.15ZM209.87 580.05C207.59 579.32 205.31 578.59 203.03 577.86C203.19 577.67 203.34 577.49 203.5 577.3C206.28 577.56 208.27 577.74 209.87 580.05ZM214.11 585.96C213 584.32 211.89 582.68 210.79 581.04C211.02 580.81 211.26 580.58 211.5 580.36C212.59 582.07 213.68 583.79 214.77 585.5C214.55 585.65 214.33 585.81 214.11 585.96ZM172.1 585.95C172.02 586.68 171.94 587.42 171.86 588.16C171.58 587.94 171.3 587.72 171.01 587.5C171.17 586.09 171.34 584.67 171.5 583.26C171.7 584.16 171.9 585.05 172.1 585.95ZM243.84 586.11C243.85 589.11 243.86 592.1 243.88 595.1C243.86 592.1 243.85 589.11 243.84 586.11ZM171.15 591.1C171.05 592.02 170.95 592.95 170.84 593.87C170.66 593.75 170.48 593.62 170.3 593.5C170.36 591.97 170.43 590.44 170.5 588.92C170.72 589.64 170.93 590.37 171.15 591.1ZM303.87 590.07C306.56 590.1 309.25 590.12 311.94 590.14C311.8 590.34 311.65 590.55 311.5 590.75C308.96 590.52 306.41 590.3 303.87 590.07ZM392 591.27C391.83 591.76 391.67 592.26 391.5 592.76C384.95 592.52 378.39 592.29 371.84 592.06C378.56 591.79 385.28 591.53 392 591.27ZM491.14 591.97C485.93 592.3 480.71 592.63 475.5 592.96C475.17 594.19 474.83 595.41 474.5 596.63C474.3 595.44 474.1 594.24 473.9 593.05C474.1 592.68 474.3 592.31 474.5 591.94C480.05 591.95 485.6 591.96 491.14 591.97ZM548.04 608.94C548.53 603.54 549.01 598.13 549.5 592.73C539.99 592.45 530.48 592.18 520.97 591.9C530.81 591.88 540.66 591.85 550.5 591.83C551.42 596.58 550.48 604.83 548.04 608.94ZM346 591.63C347.86 591.73 349.72 591.84 351.58 591.94C347.89 593.88 339.96 592.85 335.5 592.74C333.64 592.69 330.34 591.99 328.69 593.07C327 594.19 329.2 593.09 327.74 594.5C327.46 594.01 327.17 593.51 326.89 593.02C327.09 592.68 327.3 592.33 327.5 591.98C333.67 591.86 339.83 591.74 346 591.63ZM371.16 592.13C370.67 593.25 370.17 594.38 369.68 595.5C369.62 597.37 369.56 599.25 369.5 601.12C369.09 600.75 368.68 600.37 368.26 600C368.7 596.96 368.47 593.7 371.16 592.13ZM291.05 592.93C291.2 593.25 291.35 593.57 291.5 593.9C285.79 596.55 283.74 601.65 279.96 603.63C281.9 598.78 286.19 594.78 291.05 592.93ZM410.04 592.91C410.51 593.11 410.97 593.3 411.43 593.5C408.6 594.56 405.76 595.62 402.93 596.68C405.3 595.43 407.67 594.17 410.04 592.91ZM449.07 592.96C452.01 593.86 454.27 595.45 456.15 597.9C453.79 596.26 451.43 594.61 449.07 592.96ZM215.16 595.09C215.27 596.85 215.39 598.6 215.5 600.36C215.3 599.6 215.09 598.83 214.89 598.07C214.98 597.08 215.07 596.08 215.16 595.09ZM141.12 595.93C141.35 596.12 141.58 596.31 141.8 596.5C141.04 601.49 140.27 606.49 139.5 611.48C139.31 610.69 139.13 609.89 138.94 609.1C139.67 604.71 140.39 600.32 141.12 595.93ZM314.13 597.06C313.71 599.68 313.3 602.31 312.88 604.93C312.69 604.78 312.5 604.64 312.31 604.5C312.71 601.51 313.1 598.51 313.5 595.52C313.71 596.04 313.92 596.55 314.13 597.06ZM326.15 596C326.51 596.17 326.88 596.33 327.24 596.5C326.66 599.75 326.08 603.01 325.5 606.26C325.07 606.18 324.65 606.09 324.22 606C324.86 602.67 325.5 599.33 326.15 596ZM256.17 597.16C256.28 598.69 256.39 600.21 256.5 601.73C256.3 601.12 256.1 600.51 255.89 599.9C255.98 598.99 256.08 598.08 256.17 597.16ZM353.07 598.1C352.34 602.74 351.61 607.39 350.88 612.04C350.62 611.86 350.37 611.68 350.11 611.5C351.1 607.03 352.09 602.56 353.07 598.1ZM456.15 597.9C457.13 599.18 458.12 600.46 459.1 601.74C457.23 600.78 456.72 600 456.15 597.9ZM214.15 600.99C214.39 601.16 214.63 601.33 214.88 601.5C214.42 603.47 213.96 605.44 213.5 607.4C213.31 606.95 213.12 606.49 212.92 606.03C213.33 604.35 213.74 602.67 214.15 600.99ZM397.99 600.96C398.21 601.14 398.42 601.32 398.64 601.5C397.59 602.33 396.55 603.17 395.5 604C395.51 603.69 395.53 603.38 395.54 603.07C396.36 602.37 397.17 601.66 397.99 600.96ZM242.14 606.03C241.09 612.82 237.75 620.25 233.05 625.33C232.8 624.46 232.32 625.81 232.42 624.63C232.49 623.68 236.02 619.03 236.69 617.91C239.13 613.81 240.47 609.14 241.33 604.5C241.6 605.01 241.87 605.52 242.14 606.03ZM324.16 607.14C325.66 610.44 323.98 614.82 323.5 618.38C323.29 617.57 323.08 616.76 322.86 615.94C323.3 613.01 323.73 610.08 324.16 607.14ZM367.13 607.07C368.6 610.63 366.06 619.28 365.5 623.51C365.29 622.67 365.08 621.82 364.87 620.97C365.63 616.34 366.38 611.7 367.13 607.07ZM548.04 608.94C547.53 609.6 547.01 610.25 546.5 610.91C537.41 610.9 528.33 610.88 519.24 610.87C519.35 610.41 519.45 609.96 519.55 609.5C525.62 610.63 542.4 610.96 548.04 608.94ZM311.13 612.19C307.57 614.3 301.79 612.77 297.5 613.13C289.22 613.83 283.02 617.95 278.92 624.99C278.78 624.33 278.64 623.66 278.5 622.99C286.51 611.17 298.04 611.37 311.13 612.19ZM413.96 612.84C412.28 612.92 410.61 613 408.93 613.08C408.2 612.89 407.47 612.69 406.75 612.5C409.15 612.61 411.56 612.73 413.96 612.84ZM516.16 615.01C516.06 615.65 515.96 616.29 515.86 616.92C515.66 616.78 515.46 616.64 515.26 616.5C515.34 614.96 515.42 613.43 515.5 611.89C515.72 612.93 515.94 613.97 516.16 615.01ZM208.96 612.82C209.22 613.04 209.47 613.27 209.73 613.5C208.32 614.9 206.91 616.29 205.5 617.69C205.3 617.45 205.1 617.21 204.9 616.96C206.25 615.58 207.61 614.2 208.96 612.82ZM350.11 615.92C350.03 616.6 349.95 617.28 349.87 617.96C349.62 617.81 349.38 617.65 349.13 617.5C349.26 616.03 349.38 614.55 349.5 613.08C349.7 614.03 349.91 614.97 350.11 615.92ZM253.12 614.91C253.25 616.7 253.37 618.49 253.5 620.28C253.3 619.21 253.1 618.14 252.9 617.07C252.97 616.35 253.05 615.63 253.12 614.91ZM397.12 618.04C396.1 619.07 395.07 620.1 394.05 621.13C393.83 620.92 393.6 620.71 393.38 620.5C394.42 619.45 395.46 618.41 396.5 617.36C396.71 617.59 396.91 617.81 397.12 618.04ZM515.71 619C515.43 620.34 515.14 621.68 514.86 623.02C514.61 622.85 514.36 622.67 514.11 622.5C514.24 620.98 514.37 619.45 514.5 617.93C514.9 618.29 515.31 618.64 515.71 619ZM137.1 618.88C138.63 623.26 135.56 633.31 134.74 638.5C134.45 638.31 134.17 638.13 133.88 637.94C134.95 631.59 136.03 625.23 137.1 618.88ZM322.16 619.1C322.35 619.24 322.53 619.37 322.72 619.5C322.65 621.04 322.57 622.58 322.5 624.13C322.3 623.42 322.09 622.71 321.89 622C321.98 621.04 322.07 620.07 322.16 619.1ZM200.03 619.96C200.26 620.14 200.48 620.32 200.71 620.5C199.31 620.96 197.9 621.42 196.5 621.87C196.31 621.62 196.13 621.37 195.94 621.12C197.3 620.73 198.67 620.35 200.03 619.96ZM252.13 620.87C252.4 621.08 252.67 621.29 252.93 621.5C252.5 623.5 252.07 625.5 251.64 627.5C251.59 628.94 251.55 630.39 251.5 631.83C251.31 630.92 251.11 630.01 250.92 629.1C251.32 626.36 251.73 623.61 252.13 620.87ZM176.11 622.16C181.41 622.08 186.72 622 192.03 621.92C192.93 622.11 193.82 622.31 194.71 622.5C188.51 622.39 182.31 622.28 176.11 622.16ZM348.86 624.13C347.87 629.78 346.88 635.44 345.88 641.09C345.42 639.39 344.96 637.7 344.5 636C347.29 632.83 345.54 626.85 348.86 624.13ZM392.06 625.85C391.65 628.19 391.25 630.53 390.84 632.87C390.67 632.75 390.51 632.62 390.35 632.5C390.73 629.81 391.12 627.11 391.5 624.42C391.69 624.9 391.88 625.37 392.06 625.85ZM514.76 624C514.46 625.36 514.17 626.72 513.88 628.08C513.65 627.88 513.42 627.69 513.2 627.5C513.3 626.37 513.4 625.24 513.5 624.1C513.92 624.07 514.34 624.03 514.76 624ZM232.07 626.15C230.47 627.8 228.87 629.45 227.26 631.1C228.87 629.45 230.47 627.8 232.07 626.15ZM277.05 631.87C276.65 634.21 276.25 636.54 275.85 638.88C275.66 638.75 275.48 638.63 275.29 638.5C275.69 635.43 276.1 632.36 276.5 629.28C276.68 630.15 276.87 631.01 277.05 631.87ZM486.15 628.98C486.37 629.16 486.59 629.33 486.81 629.5C486.71 631.16 486.6 632.83 486.5 634.49C486.28 633.61 486.06 632.74 485.84 631.86C485.95 630.9 486.05 629.94 486.15 628.98ZM513.73 630C512.77 634.98 511.82 639.95 510.86 644.93C510.67 644.78 510.48 644.64 510.29 644.5C510.19 642.83 510.1 641.17 510 639.5C510.83 636.29 511.67 633.08 512.5 629.87C512.91 629.92 513.32 629.96 513.73 630ZM226.27 632.05C223.07 635.3 218.66 638.31 214.16 639.11C214.27 638.8 214.39 638.49 214.5 638.18C218.17 635.92 221.83 633.65 225.5 631.39C225.76 631.61 226.01 631.83 226.27 632.05ZM320.15 631.05C320.33 631.2 320.51 631.35 320.68 631.5C320.62 632.98 320.56 634.47 320.5 635.95C320.31 635.33 320.11 634.71 319.92 634.09C320 633.08 320.08 632.07 320.15 631.05ZM485.13 635.01C485.4 635.18 485.67 635.34 485.94 635.5C485.79 636.88 485.65 638.26 485.5 639.64C485.29 638.76 485.09 637.89 484.88 637.01C484.97 636.35 485.05 635.68 485.13 635.01ZM362.15 636.11C362.26 637.73 362.38 639.34 362.5 640.96C362.29 640.26 362.08 639.56 361.87 638.86C361.96 637.95 362.06 637.03 362.15 636.11ZM275.1 642.86C274.68 645.89 274.26 648.92 273.84 651.95C273.64 651.8 273.45 651.65 273.25 651.5C273.23 648.92 273.28 647.58 272 645.5C274.96 644.1 274.14 642.82 274.5 639.54C274.7 640.65 274.9 641.75 275.1 642.86ZM133.16 641.07C133.38 641.21 133.6 641.36 133.82 641.5C133.71 642.94 133.61 644.38 133.5 645.83C133.28 645.17 133.06 644.52 132.85 643.87C132.95 642.93 133.05 642 133.16 641.07ZM200.99 642.84C199.3 642.93 197.62 643.02 195.93 643.1C194.1 642.9 192.28 642.7 190.45 642.5C193.8 642.38 197.15 642.25 200.5 642.13C200.66 642.37 200.82 642.6 200.99 642.84ZM345.1 644.95C345.02 645.64 344.95 646.34 344.88 647.04C344.62 646.86 344.37 646.68 344.11 646.5C344.24 644.95 344.37 643.39 344.5 641.84C344.7 642.87 344.9 643.91 345.1 644.95ZM175.94 643.83C173.25 643.84 170.55 643.85 167.86 643.86C168.07 643.6 168.29 643.35 168.5 643.1C170.83 643.16 173.17 643.22 175.5 643.28C175.65 643.46 175.8 643.65 175.94 643.83ZM318.13 643.97C318.37 644.15 318.61 644.32 318.86 644.5C318.74 645.87 318.62 647.24 318.5 648.62C318.3 647.77 318.1 646.92 317.9 646.07C317.98 645.37 318.05 644.67 318.13 643.97ZM248.14 645.11C248.28 645.24 248.43 645.37 248.57 645.5C248.54 646.85 248.52 648.2 248.5 649.55C248.31 648.72 248.12 647.9 247.93 647.07C248 646.42 248.07 645.76 248.14 645.11ZM388.07 648.88C388 649.55 387.92 650.21 387.85 650.88C387.68 650.76 387.51 650.63 387.34 650.5C387.39 648.7 387.45 646.9 387.5 645.09C387.69 646.35 387.88 647.62 388.07 648.88ZM459.14 649.04C458.74 651.41 458.33 653.77 457.93 656.14C456.08 653.29 458.06 649.42 458.5 645.98C458.71 647 458.93 648.02 459.14 649.04ZM483.15 646.06C483.35 646.2 483.55 646.35 483.75 646.5C483.66 648.02 483.58 649.53 483.5 651.05C483.3 650.09 483.1 649.13 482.91 648.16C482.99 647.46 483.07 646.76 483.15 646.06ZM510.11 649C509.37 653.33 508.63 657.66 507.89 662C506.17 658.51 508.97 650.24 509.5 646.02C509.7 647.01 509.91 648 510.11 649ZM132.14 646.94C132.38 647.12 132.61 647.31 132.84 647.5C132.73 648.88 132.61 650.27 132.5 651.65C132.29 650.77 132.08 649.89 131.88 649.01C131.97 648.32 132.06 647.63 132.14 646.94ZM360.14 648.16C360.26 649.63 360.38 651.1 360.5 652.58C360.31 651.73 360.12 650.89 359.92 650.05C360 649.42 360.07 648.79 360.14 648.16ZM387.12 654.02C387.03 655.01 386.94 656 386.85 656.99C386.63 656.82 386.41 656.66 386.19 656.5C386.3 654.84 386.4 653.17 386.5 651.51C386.71 652.35 386.91 653.18 387.12 654.02ZM482.14 652.06C482.34 652.21 482.54 652.35 482.73 652.5C482.66 654.05 482.58 655.61 482.5 657.16C482.31 656.14 482.11 655.11 481.92 654.09C481.99 653.41 482.07 652.74 482.14 652.06ZM343.1 656.86C342.02 663.25 340.94 669.64 339.86 676.03C338.04 671.88 341.64 659.66 342.36 654.5C342.61 655.29 342.85 656.07 343.1 656.86ZM316.15 655.06C316.36 655.21 316.57 655.35 316.78 655.5C316.68 656.88 316.59 658.26 316.5 659.64C316.31 658.81 316.12 657.98 315.92 657.15C316 656.45 316.07 655.76 316.15 655.06ZM430.14 655.11C430.26 656.62 430.38 658.14 430.5 659.65C430.31 658.81 430.11 657.97 429.92 657.13C429.99 656.46 430.07 655.78 430.14 655.11ZM159.18 659.17C159.07 660.1 158.96 661.03 158.85 661.96C158.63 661.81 158.41 661.65 158.19 661.5C158.3 659.9 158.4 658.3 158.5 656.7C158.73 657.52 158.95 658.34 159.18 659.17ZM457.11 660C457.03 660.97 456.94 661.93 456.85 662.9C456.65 662.77 456.46 662.63 456.27 662.5C456.34 661.05 456.42 659.59 456.5 658.14C456.7 658.76 456.91 659.38 457.11 660ZM358.16 659.11C358.34 659.24 358.52 659.37 358.7 659.5C358.3 663.11 357.9 666.72 357.5 670.33C357.3 669.26 357.1 668.18 356.9 667.11C357.32 664.44 357.74 661.77 358.16 659.11ZM429.14 660.99C429.35 661.16 429.55 661.33 429.76 661.5C429.67 662.95 429.59 664.4 429.5 665.85C429.3 664.92 429.1 664 428.91 663.07C428.99 662.38 429.06 661.68 429.14 660.99ZM456.12 666.01C456.02 666.97 455.93 667.93 455.83 668.89C455.63 668.76 455.44 668.63 455.24 668.5C455.33 666.96 455.41 665.43 455.5 663.89C455.71 664.6 455.91 665.3 456.12 666.01ZM480.11 665.93C480.3 666.12 480.5 666.31 480.7 666.5C480.51 669.65 480.33 672.79 480.14 675.94C480.13 672.6 480.12 669.26 480.11 665.93ZM507.86 666.89C508.97 669.46 510.07 672.03 511.18 674.6C507.87 673.49 507.36 670.78 506.87 667.5C507.2 667.3 507.53 667.09 507.86 666.89ZM157.1 670.95C156.35 675.63 155.6 680.31 154.84 684.99C153.01 681.24 155.95 672.5 156.5 668.05C156.7 669.01 156.9 669.98 157.1 670.95ZM244.14 668.02C244.39 668.18 244.64 668.34 244.9 668.5C244.76 670.05 244.63 671.6 244.5 673.15C244.3 672.14 244.11 671.12 243.91 670.11C243.99 669.41 244.06 668.72 244.14 668.02ZM128.11 669.88C129 672.15 128.76 673.36 127.58 675.5C127.55 676.77 127.53 678.03 127.5 679.3C127.3 678.59 127.11 677.87 126.91 677.15C127.31 674.73 127.71 672.31 128.11 669.88ZM270.1 672.93C270.02 673.61 269.94 674.3 269.86 674.99C269.62 674.82 269.39 674.66 269.16 674.5C269.27 672.99 269.39 671.47 269.5 669.96C269.7 670.95 269.9 671.94 270.1 672.93ZM455.14 672.06C455.04 673 454.94 673.94 454.83 674.88C454.63 674.75 454.44 674.63 454.24 674.5C454.33 672.86 454.41 671.22 454.5 669.58C454.71 670.4 454.93 671.23 455.14 672.06ZM356.14 671.09C356.34 671.22 356.55 671.36 356.75 671.5C356.67 673.03 356.58 674.57 356.5 676.1C356.3 675.1 356.1 674.09 355.9 673.09C355.98 672.42 356.06 671.75 356.14 671.09ZM427.16 673.13C427.34 673.25 427.51 673.38 427.69 673.5C427.63 675.04 427.56 676.58 427.5 678.13C427.28 677.38 427.06 676.62 426.84 675.87C426.95 674.96 427.05 674.04 427.16 673.13ZM269.09 678.87C268.68 681.25 268.27 683.64 267.86 686.02C267.62 685.85 267.38 685.67 267.14 685.5C267.59 682.27 268.05 679.05 268.5 675.82C268.7 676.84 268.89 677.85 269.09 678.87ZM383.12 678.91C383.03 679.59 382.94 680.27 382.85 680.95C382.63 680.8 382.42 680.65 382.2 680.5C382.3 678.84 382.4 677.17 382.5 675.51C382.71 676.64 382.91 677.78 383.12 678.91ZM533 676.23C533.12 676.65 533.24 677.08 533.36 677.5C531.74 677.64 530.12 677.79 528.5 677.93C528.31 677.64 528.12 677.35 527.93 677.06C529.62 676.78 531.31 676.5 533 676.23ZM534 676.18C534.98 676.62 535.97 677.06 536.95 677.5C536.91 678 536.86 678.5 536.81 679C535.99 678.5 535.17 678 534.35 677.5C534.23 677.06 534.12 676.62 534 676.18ZM339.17 679.16C338.73 682.09 338.29 685.02 337.85 687.96C337.59 687.81 337.33 687.65 337.08 687.5C336.88 686 336.69 684.5 336.5 683C338.48 680.98 338.15 679.86 338.5 676.79C338.72 677.58 338.94 678.37 339.17 679.16ZM355.12 676.85C355.37 677.06 355.61 677.28 355.85 677.5C355.73 679 355.62 680.49 355.5 681.99C355.3 681.01 355.1 680.03 354.9 679.05C354.98 678.32 355.05 677.58 355.12 676.85ZM517 676.89C517.99 676.96 518.98 677.03 519.97 677.1C519.81 677.4 519.66 677.7 519.5 678C518.07 677.84 516.64 677.67 515.2 677.5C515.8 677.3 516.4 677.1 517 676.89ZM312.16 678.05C312.35 678.2 312.54 678.35 312.73 678.5C312.65 680.22 312.58 681.93 312.5 683.65C312.3 682.77 312.1 681.9 311.9 681.03C311.98 680.04 312.07 679.05 312.16 678.05ZM485.96 690.19C483.02 687.41 481.45 683.96 480.91 679.97C481.11 679.21 481.3 678.46 481.5 677.7C481.57 678.97 481.63 680.23 481.7 681.5C483.35 684.17 485 686.83 486.64 689.5C486.42 689.73 486.19 689.96 485.96 690.19ZM126.2 680.41C126.47 680.44 126.73 680.47 127 680.5C126.83 682.01 126.67 683.51 126.5 685.02C126.09 685.01 125.68 685.01 125.27 685C125.58 683.47 125.89 681.94 126.2 680.41ZM536.77 681C535.79 688.49 536.81 694.3 529 696.7C528.59 696.3 528.17 695.9 527.76 695.5C528.84 694.83 529.92 694.17 531 693.5C532.56 693.38 530.78 694.49 532.31 693.88C533.91 693.24 534.99 683.44 535.23 681.5C535.75 681.33 536.26 681.17 536.77 681ZM354.15 683.08C354.33 683.22 354.52 683.36 354.71 683.5C354.64 685.03 354.57 686.57 354.5 688.1C354.29 687.39 354.08 686.68 353.87 685.97C353.96 685.01 354.05 684.05 354.15 683.08ZM311.13 684.93C311.26 686.54 311.38 688.15 311.5 689.75C311.3 688.85 311.1 687.95 310.9 687.05C310.98 686.34 311.06 685.64 311.13 684.93ZM425.15 685.04C425.34 685.19 425.53 685.35 425.71 685.5C425.61 688.5 425.5 691.5 425.39 694.5C425.26 694.95 425.13 695.39 425.01 695.84C424.6 695.73 424.2 695.61 423.8 695.5C424.25 692.01 424.7 688.52 425.15 685.04ZM154.12 688.03C154.04 688.72 153.95 689.4 153.87 690.08C153.59 689.89 153.31 689.69 153.04 689.5C153.19 688.2 153.35 686.91 153.5 685.61C153.71 686.42 153.92 687.23 154.12 688.03ZM267.15 689.14C267.04 690.38 266.94 691.62 266.83 692.86C266.72 690.88 266.61 688.9 266.5 686.92C266.72 687.66 266.93 688.4 267.15 689.14ZM381.12 690.02C381.03 691.03 380.95 692.05 380.86 693.07C380.63 692.88 380.4 692.69 380.17 692.5C380.28 690.81 380.39 689.12 380.5 687.42C380.71 688.29 380.91 689.15 381.12 690.02ZM486.98 691.15C489.06 691.67 490.54 692.97 492.57 693.95C495.71 695.45 499.15 696.31 502.57 696.82C507.91 697.61 515.33 695.48 519.99 697.85C510.2 698.72 493.71 700.09 486.98 691.15ZM527.09 696.86C525.39 697.16 523.7 697.47 522 697.77C521.92 697.35 521.84 696.92 521.76 696.5C523.34 696.38 524.92 696.27 526.5 696.15C526.7 696.39 526.89 696.62 527.09 696.86ZM249.7 744.5C249.7 746.17 249.7 747.83 249.7 749.5C246.46 751.15 243.62 751.6 240 751.5C239.94 754.88 240.65 756.71 238.5 759.04C237.57 758.74 236.88 759.24 236.2 758.29C235.48 757.3 235.96 754.67 235.96 753.5C235.95 749.17 235.96 744.83 236.04 740.5C241.04 739.96 246.96 739.63 249.7 744.5ZM281.5 740.35C282.15 740.59 282.81 740.4 283.31 741.02C284.39 742.36 283.55 751.58 283.46 753.59C283.41 754.81 283.91 757.27 283.13 758.3C281.99 759.8 282.95 757.85 281.5 759.04C280.08 757.57 281.24 760.02 280.18 758.29C279.61 757.34 279.61 742.86 280.09 741.55C280.56 740.28 280.7 741.04 281.5 740.35ZM293.5 740.32C299.22 741.79 302.58 748.91 306.5 753.18C307.13 749.26 305.6 742.87 308.5 740.32C309.65 741.31 308.82 739.57 309.69 740.82C310.99 742.69 310.06 756.29 309.5 758.84C303.71 758.25 300.62 750.44 296.5 746.73C296.27 748.86 297.07 757.1 296.14 758.3C295 759.77 295.94 757.89 294.5 759.05C293.09 757.62 294.21 760.01 293.15 758.3C291.98 756.41 292.88 742.76 293.5 740.32ZM381.5 740.01C382.78 740.13 383.74 739.88 384.81 740.71C386 741.64 386.41 744.16 386.98 745.49C388.81 749.84 390.86 754.09 392.52 758.5C386.44 758.95 390.53 757.11 387.27 755.28C385.34 754.2 380.75 754.95 378.5 754.71C377.06 757.36 376.49 758.34 373.5 759.01C373.44 755.28 378.85 742.69 381.5 740.01ZM416.5 740.24C418.51 742.58 417.77 756.01 416.5 759C411.42 757.84 407.86 750.08 404.5 746.06C404.01 748.73 404.92 756.54 403.84 758.3C402.77 760.03 403.93 757.58 402.5 759.04C401.63 758.65 401.06 759.02 400.47 758.15C399.95 757.38 400.5 754.4 400.51 753.5C400.56 749.01 400.16 744.63 401.5 740.42C406.76 741.93 410.44 748.31 413.5 752.75C414.06 750.29 413.22 742.28 414.34 740.82C414.92 740.08 415.72 740.45 416.5 740.24ZM425.5 740.34C430.23 741.22 430.58 745.26 433.5 748.51C436.25 745.28 437.09 741.02 441.5 740.08C441.54 744.4 436.7 747.6 435.34 751.77C434.16 755.38 436.38 756.07 433.5 759.03C430.36 756.13 432.59 755.64 431.53 751.84C430.39 747.78 425.61 744.43 425.5 740.34ZM471.5 740.14C474.97 741.48 474.14 744.52 474.46 747.87C477.8 747.87 481.15 747.87 484.5 747.87C484.96 745.52 484.11 741.26 486.5 740.42C487.66 741.13 487.23 740.13 488.21 741.07C489.3 742.11 488.67 751.5 488.7 753.5C488.72 754.63 489.28 757.25 488.65 758.23C488.08 759.14 487.35 758.72 486.5 759.04C485.05 757.55 486.26 760.07 485.18 758.3C484.21 756.71 484.82 752.77 484.5 750.87C481.17 750.87 477.83 750.87 474.5 750.87C474.3 752.71 474.97 756.78 473.94 758.29C472.85 759.89 473.92 757.71 472.5 759.04C471.07 757.7 472.16 759.93 471.06 758.3C470.32 757.19 470.82 754.77 470.81 753.5C470.77 749.07 470.18 744.31 471.5 740.14ZM497.3 753C497.5 752.83 497.71 752.67 497.92 752.5C497.9 749.17 497.88 745.83 497.86 742.5C497.64 742.34 497.42 742.17 497.2 742.01C497.92 740.1 498.32 740.39 500.5 740.56C501.37 744.79 501.12 749.14 501.13 753.5C501.13 754.68 501.61 757.29 500.86 758.29C500.16 759.23 499.43 758.73 498.5 759.02C496.94 757.12 497.19 755.68 497.3 753ZM514.71 748C514.51 748.17 514.31 748.33 514.11 748.5C514.33 750.67 514.56 752.83 514.78 755C514.86 757.3 514.8 757.54 513.5 759.05C512.59 758.73 511.9 759.2 511.25 758.27C510.53 757.26 511 754.68 511.01 753.5C511.03 749.2 510.82 744.84 511.5 740.63C512.77 740.73 514.11 740.59 515.3 741.15C517.73 742.29 522.69 750.48 524.5 752.97C524.92 750.71 524.28 742.03 525.25 740.84C526.1 739.81 525.44 741.24 526.51 740.5C529.22 742.74 528.28 755.32 527.5 759.03C522.14 758.18 518.51 750.81 515.5 746.48C514.38 746.96 514.55 746.47 514.71 748ZM554.06 743.5C553.39 744.04 553.38 744.63 552.41 744.84C550.77 745.18 548.96 743.59 547.32 743.41C542.95 742.91 539.83 746.08 540.22 750.45C540.58 754.6 545.99 758.04 549.78 755.34C553.27 752.85 549.52 749.92 547.7 748.5C556.68 746.83 555.17 749.99 554.81 757.5C548.78 758.89 542.05 760.75 537.98 754.53C537.05 753.12 536.19 751.32 536.28 749.59C536.73 740.12 548.22 737.47 554.06 743.5ZM609.5 740.15C612.17 746.38 614.83 752.61 617.5 758.84C612.34 758.55 615.31 756.67 612.28 755.25C610.06 754.21 606.91 755.13 604.5 754.23C603.05 756.38 602.82 757.85 600.5 759.04C599.5 757.96 599.91 759.65 599.26 758.33C598.81 757.42 603.78 746.69 604.43 744.92C604.85 743.78 605.16 741.51 606.19 740.72C607.28 739.87 608.2 740.21 609.5 740.15ZM658.5 748C662.84 745.37 661.4 740.5 667.5 740.27C666.76 744.28 662.75 747 661.26 750.76C660.46 752.75 661.43 756.71 660.13 758.3C658.81 759.9 660.11 757.75 658.5 759.02C655.96 756.36 657.59 755.08 656.81 751.6C656.07 748.25 650.32 743.77 651.8 740.5C656.05 741.36 656.44 744.2 658.5 748ZM712.69 752C712.5 752.17 712.31 752.33 712.12 752.5C712.07 754.59 712.02 756.68 711.97 758.77C709.81 758.82 710.32 758.83 708.95 757.5C709.13 751.79 709.32 746.09 709.5 740.38C710.72 740.53 712.18 740.4 713.25 741.11C714.98 742.26 717.6 750.61 718.5 752.89C722.84 748.68 721.38 739.38 728.5 740.79C729.08 743.25 730.03 756.3 728.82 758.29C727.75 760.04 728.93 757.56 727.5 759.04C726.03 757.73 727.15 759.91 726.01 758.3C724.93 756.79 725.54 747.96 725.5 745.71C722.82 749.99 722.79 756.18 718.5 759.1C716.5 754.49 714.5 749.89 712.5 745.29C712.56 747.53 712.63 749.76 712.69 752ZM257.5 740.45C262.04 740.57 266.93 739.83 270.5 743C271.53 746.98 270.86 748.62 268.07 751.5C269.85 753.88 271.49 756.2 271.5 759.01C264.79 757.74 268.78 751.7 261.5 751.44C260.49 754.14 261.09 756.87 259.5 759.06C258.62 758.75 257.83 759.13 257.18 758.25C256.41 757.2 256.91 754.72 256.91 753.5C256.92 749.1 256.62 744.72 257.5 740.45ZM324.19 751.94C324.2 749.96 324.2 747.98 324.21 746C322.51 742.36 320.22 744.77 317.22 742.5C317.92 741.64 317.29 741.44 318.55 740.88C319.83 740.31 333.34 740.37 334.26 741.04C335.71 742.09 333.82 741.17 334.98 742.5C333.03 744.17 331.25 743.87 328.5 743.88C327.92 746.69 328.89 756.74 327.8 758.29C327.13 759.23 326.42 758.75 325.5 759.05C323.41 756.73 324 755.25 324.19 751.94ZM463.16 743.78C462.94 743.56 462.72 743.35 462.5 743.13C461.17 743.17 459.83 743.2 458.5 743.24C458.35 743.49 458.19 743.73 458.04 743.98C457.42 748.33 458.93 755.64 456.5 759.02C455.56 758.72 454.88 759.25 454.19 758.29C453.15 756.85 453.97 746.5 453.5 743.82C451 743.49 449.07 743.98 447.11 742.5C450.3 738.98 458.81 740.64 463.5 740.64C463.91 742.67 464.4 742.28 463.16 743.78ZM629.39 752C629.29 754.25 629.19 756.51 629.09 758.76C626.9 758.79 627.33 758.81 625.93 757.5C626.12 751.83 626.31 746.17 626.5 740.5C632.93 741.55 634.66 748.87 639.5 752.64C640.03 750.04 639.12 743.41 640.14 741.63C640.41 741.17 641.14 741.17 641.5 740.77C641.85 741.17 642.56 741.19 642.83 741.65C644.08 743.85 643.09 756.31 642.5 758.99C636.94 757.89 633.46 750.42 629.59 746.5C629.52 748.33 629.46 750.17 629.39 752ZM691.03 742.5C689.04 744.18 687.3 743.86 684.5 743.86C683.97 746.98 685.07 756.2 683.81 758.29C682.76 760.04 683.92 757.56 682.5 759.04C681.08 757.9 682.03 759.76 680.88 758.29C679.89 757.02 680.66 746.5 680.5 744.12C677.98 743.73 675.53 743.96 673.65 742.5C675.22 740.92 672.77 742.12 674.63 740.89C675.34 740.41 689.63 740.53 690.28 741.01C691.81 742.1 689.79 741.1 691.03 742.5ZM696.99 758.8C696.97 756.7 696.96 754.6 696.95 752.5C696.74 752.33 696.53 752.17 696.32 752C696.32 751.67 696.32 751.33 696.32 751C696.53 750.83 696.74 750.67 696.95 750.5C696.7 747.68 696.45 744.86 696.2 742.04C697.5 740.65 697.33 740.87 699.5 740.72C699.5 746.8 699.5 752.88 699.5 758.96C698.66 758.9 697.82 758.85 696.99 758.8ZM737.33 749C737.32 746.98 737.31 744.96 737.3 742.93C737.85 741.06 737.81 741.51 739.5 740.55C741.51 740.57 748.91 740.01 750.29 741.01C751.86 742.15 749.74 741.04 751.02 742.5C747.93 744.93 744.16 742.2 740.96 744.5C741.54 751.45 745.45 745.83 749.31 748.17C751.14 749.29 748.53 748.02 750.09 749.5C748.69 750.89 750.97 749.86 749.3 750.9C745.56 753.22 741.57 747.4 740.83 754.5C743.77 756.47 747.92 754.4 750.29 756.07C752.01 757.29 749.6 755.94 751.04 757.5C749.65 758.68 751.82 757.87 750.25 758.69C748.41 759.65 739.29 758.59 737.5 757.81C737.44 754.87 737.39 751.94 737.33 749ZM246.14 745.5C244.21 743.4 243.08 743.43 240.19 743.5C240.19 745.18 240.19 746.87 240.19 748.55C243.24 748.26 244.66 748.22 246.14 745.5ZM267.93 745.5C265.4 743.64 263.69 743.73 260.77 744.5C260.72 745.5 260.67 746.5 260.62 747.5C263.97 748.48 266.54 749.11 267.93 745.5ZM382.5 743.72C381.5 746.48 380.5 749.25 379.5 752.02C381.66 752.02 383.83 752.02 385.99 752.02C384.83 749.25 383.66 746.48 382.5 743.72ZM608.5 744.18C607.32 746.78 606.14 749.37 604.96 751.96C607.14 751.96 609.32 751.96 611.5 751.96C610.5 749.37 609.5 746.78 608.5 744.18ZM215.03 749.5C213.58 750.92 216.02 749.78 214.29 750.83C213 751.62 209.98 751.05 208.5 751.05C203.83 751.06 199.17 751.03 194.5 751.04C177.83 751.05 161.17 751.05 144.5 751.05C141.64 751.05 128.32 751.77 126.61 750.83C126.14 750.57 126.09 749.85 125.67 749.5C126.1 749.11 126.09 748.32 126.59 748.03C127.9 747.25 141.93 747.9 144.5 747.91C161.17 747.96 177.83 747.92 194.5 747.94C199.17 747.95 203.83 747.94 208.5 747.93C209.96 747.93 213.03 747.33 214.3 748.12C216 749.19 213.63 748.08 215.03 749.5ZM881.02 749.5C879.51 750.97 882.1 749.71 880.3 750.81C878.98 751.61 876 751.04 874.5 751.04C869.17 751.04 863.83 751.05 858.5 751.04C837.17 750.99 815.83 751.04 794.5 751.04C788.83 751.04 783.17 751.03 777.5 751.04C775.79 751.04 772.22 751.72 770.73 750.78C769.13 749.76 771.42 750.87 770.09 749.5C771.36 748.09 769.13 749.18 770.71 748.11C772.11 747.18 775.86 747.92 777.5 747.92C783.17 747.92 788.83 747.91 794.5 747.92C815.83 747.95 837.17 747.9 858.5 747.92C863.83 747.92 869.17 747.94 874.5 747.92C875.9 747.91 879.1 747.24 880.29 748.02C881.82 749.02 879.76 748.15 881.02 749.5Z" fill="#060c2c" fill-rule="evenodd" stroke="#060c2c" stroke-width="0.25" stroke-linejoin="round"/>
<path d="M443.99 403.16C455.98 403.14 467.97 403.12 479.95 403.09C476.92 404.99 472.87 405.4 469.49 406.92C460.86 410.8 452.1 414.37 444.19 419.65C419.24 436.27 402.24 458.81 388.8 485.29C384.82 493.13 377.52 505.23 376.87 513.84C363.55 513.83 350.22 513.82 336.9 513.81C338.55 507.4 341.66 501.1 344.64 495.17C352.26 479.98 360.16 465.66 370.6 452.18C375.18 446.27 386.08 437.23 388.93 431.93C390.95 430.29 392.97 428.64 394.99 427C396.3 425.97 397.6 424.95 398.91 423.93C401.91 421.95 404.92 419.97 407.93 417.99C415.3 414.6 422.68 411.21 430.05 407.82C430.37 407.77 430.68 407.71 431 407.65C433.99 406.7 436.98 405.75 439.96 404.8C441.31 404.25 442.65 403.71 443.99 403.16ZM351.89 591.32C351.79 591.53 351.68 591.73 351.58 591.94C349.72 591.84 347.86 591.73 346 591.63C347.96 591.52 349.93 591.42 351.89 591.32ZM737.3 742.93C737.31 744.96 737.32 746.98 737.33 749C737.32 746.98 737.31 744.96 737.3 742.93ZM629.39 752C629.51 754.17 629.63 756.33 629.75 758.5C629.53 758.59 629.31 758.67 629.09 758.76C629.19 756.51 629.29 754.25 629.39 752Z" fill="#289aee" fill-rule="evenodd" stroke="#289aee" stroke-width="0.25" stroke-linejoin="round"/>
<path d="M504.95 402.21C517.66 402.3 530.37 402.4 543.09 402.5C535.91 405.87 528.44 407.7 521.65 412.12C503.95 423.67 491.62 440.62 481.2 458.69C474.14 470.94 470.07 484.57 463.61 497.12C460.49 503.19 456.74 510.22 451 514.17C439.62 514.05 428.25 513.93 416.87 513.81C417.72 505.45 424.36 495.2 427.85 487.38C439.94 460.38 456.23 435.58 479.52 417.01C484.79 412.82 490.56 409.04 496.59 406.02C499.34 404.63 502.42 403.89 504.95 402.21Z" fill="#fed413" fill-rule="evenodd" stroke="#fed413" stroke-width="0.25" stroke-linejoin="round"/>
<path d="M504.95 402.21C502.42 403.89 499.34 404.63 496.59 406.02C490.56 409.04 484.79 412.82 479.52 417.01C456.23 435.58 439.94 460.38 427.85 487.38C424.36 495.2 417.72 505.45 416.87 513.81C403.54 513.82 390.2 513.83 376.87 513.84C377.52 505.23 384.82 493.13 388.8 485.29C402.24 458.81 419.24 436.27 444.19 419.65C452.1 414.37 460.86 410.8 469.49 406.92C472.87 405.4 476.92 404.99 479.95 403.09C488.29 402.8 496.62 402.5 504.95 402.21Z" fill="#ed1e7f" fill-rule="evenodd" stroke="#ed1e7f" stroke-width="0.25" stroke-linejoin="round"/>
</svg>